%TF.GenerationSoftware,KiCad,Pcbnew,8.0.0*%
%TF.CreationDate,2024-03-23T18:21:10-07:00*%
%TF.ProjectId,Penta_OctoWS2811,50656e74-615f-44f6-9374-6f5753323831,rev?*%
%TF.SameCoordinates,Original*%
%TF.FileFunction,Paste,Top*%
%TF.FilePolarity,Positive*%
%FSLAX46Y46*%
G04 Gerber Fmt 4.6, Leading zero omitted, Abs format (unit mm)*
G04 Created by KiCad (PCBNEW 8.0.0) date 2024-03-23 18:21:10*
%MOMM*%
%LPD*%
G01*
G04 APERTURE LIST*
G04 Aperture macros list*
%AMRoundRect*
0 Rectangle with rounded corners*
0 $1 Rounding radius*
0 $2 $3 $4 $5 $6 $7 $8 $9 X,Y pos of 4 corners*
0 Add a 4 corners polygon primitive as box body*
4,1,4,$2,$3,$4,$5,$6,$7,$8,$9,$2,$3,0*
0 Add four circle primitives for the rounded corners*
1,1,$1+$1,$2,$3*
1,1,$1+$1,$4,$5*
1,1,$1+$1,$6,$7*
1,1,$1+$1,$8,$9*
0 Add four rect primitives between the rounded corners*
20,1,$1+$1,$2,$3,$4,$5,0*
20,1,$1+$1,$4,$5,$6,$7,0*
20,1,$1+$1,$6,$7,$8,$9,0*
20,1,$1+$1,$8,$9,$2,$3,0*%
G04 Aperture macros list end*
%ADD10RoundRect,0.237500X-0.300000X-0.237500X0.300000X-0.237500X0.300000X0.237500X-0.300000X0.237500X0*%
%ADD11RoundRect,0.237500X0.237500X-0.250000X0.237500X0.250000X-0.237500X0.250000X-0.237500X-0.250000X0*%
%ADD12RoundRect,0.237500X0.237500X-0.300000X0.237500X0.300000X-0.237500X0.300000X-0.237500X-0.300000X0*%
%ADD13RoundRect,0.150000X-0.150000X0.875000X-0.150000X-0.875000X0.150000X-0.875000X0.150000X0.875000X0*%
%ADD14RoundRect,0.237500X-0.237500X0.300000X-0.237500X-0.300000X0.237500X-0.300000X0.237500X0.300000X0*%
%ADD15RoundRect,0.237500X0.300000X0.237500X-0.300000X0.237500X-0.300000X-0.237500X0.300000X-0.237500X0*%
%ADD16RoundRect,0.150000X-0.150000X0.587500X-0.150000X-0.587500X0.150000X-0.587500X0.150000X0.587500X0*%
%ADD17RoundRect,0.375000X-0.625000X-0.375000X0.625000X-0.375000X0.625000X0.375000X-0.625000X0.375000X0*%
%ADD18RoundRect,0.500000X-0.500000X-1.400000X0.500000X-1.400000X0.500000X1.400000X-0.500000X1.400000X0*%
%ADD19RoundRect,0.150000X0.150000X-0.875000X0.150000X0.875000X-0.150000X0.875000X-0.150000X-0.875000X0*%
G04 APERTURE END LIST*
D10*
%TO.C,C4*%
X134987500Y-118143750D03*
X136712500Y-118143750D03*
%TD*%
D11*
%TO.C,R24*%
X160250000Y-73912500D03*
X160250000Y-72087500D03*
%TD*%
D12*
%TO.C,C1*%
X124000000Y-59362500D03*
X124000000Y-57637500D03*
%TD*%
D11*
%TO.C,R30*%
X163750000Y-101912500D03*
X163750000Y-100087500D03*
%TD*%
D12*
%TO.C,C2*%
X124000000Y-96362500D03*
X124000000Y-94637500D03*
%TD*%
D11*
%TO.C,R40*%
X143250000Y-114912500D03*
X143250000Y-113087500D03*
%TD*%
%TO.C,R3*%
X128000000Y-69000000D03*
X128000000Y-67175000D03*
%TD*%
D12*
%TO.C,C5*%
X173500000Y-63862500D03*
X173500000Y-62137500D03*
%TD*%
%TO.C,C8*%
X146000000Y-41862500D03*
X146000000Y-40137500D03*
%TD*%
D11*
%TO.C,R33*%
X155500000Y-114912500D03*
X155500000Y-113087500D03*
%TD*%
%TO.C,R37*%
X148500000Y-114912500D03*
X148500000Y-113087500D03*
%TD*%
%TO.C,R22*%
X163750000Y-73912500D03*
X163750000Y-72087500D03*
%TD*%
%TO.C,R21*%
X165500000Y-73912500D03*
X165500000Y-72087500D03*
%TD*%
%TO.C,R31*%
X162000000Y-101912500D03*
X162000000Y-100087500D03*
%TD*%
%TO.C,R23*%
X162000000Y-73912500D03*
X162000000Y-72087500D03*
%TD*%
D13*
%TO.C,U5*%
X171715000Y-58850000D03*
X170445000Y-58850000D03*
X169175000Y-58850000D03*
X167905000Y-58850000D03*
X166635000Y-58850000D03*
X165365000Y-58850000D03*
X164095000Y-58850000D03*
X162825000Y-58850000D03*
X161555000Y-58850000D03*
X160285000Y-58850000D03*
X160285000Y-68150000D03*
X161555000Y-68150000D03*
X162825000Y-68150000D03*
X164095000Y-68150000D03*
X165365000Y-68150000D03*
X166635000Y-68150000D03*
X167905000Y-68150000D03*
X169175000Y-68150000D03*
X170445000Y-68150000D03*
X171715000Y-68150000D03*
%TD*%
D11*
%TO.C,R39*%
X145000000Y-114912500D03*
X145000000Y-113087500D03*
%TD*%
D12*
%TO.C,C7*%
X156500000Y-104862500D03*
X156500000Y-103137500D03*
%TD*%
D11*
%TO.C,R29*%
X165500000Y-101912500D03*
X165500000Y-100087500D03*
%TD*%
%TO.C,R8*%
X136750000Y-69000000D03*
X136750000Y-67175000D03*
%TD*%
%TO.C,R28*%
X167250000Y-101912500D03*
X167250000Y-100087500D03*
%TD*%
%TO.C,R6*%
X133250000Y-69000000D03*
X133250000Y-67175000D03*
%TD*%
%TO.C,R13*%
X131500000Y-105912500D03*
X131500000Y-104087500D03*
%TD*%
D14*
%TO.C,C9*%
X177000000Y-49137500D03*
X177000000Y-50862500D03*
%TD*%
D11*
%TO.C,R11*%
X128000000Y-105912500D03*
X128000000Y-104087500D03*
%TD*%
D15*
%TO.C,C3*%
X132212500Y-127143750D03*
X130487500Y-127143750D03*
%TD*%
D16*
%TO.C,D1*%
X149950000Y-40062500D03*
X148050000Y-40062500D03*
X149000000Y-41937500D03*
%TD*%
D11*
%TO.C,R34*%
X153750000Y-114912500D03*
X153750000Y-113087500D03*
%TD*%
%TO.C,R20*%
X167250000Y-73912500D03*
X167250000Y-72087500D03*
%TD*%
D17*
%TO.C,U3*%
X130200000Y-120343750D03*
X130200000Y-122643750D03*
D18*
X136500000Y-122643750D03*
D17*
X130200000Y-124943750D03*
%TD*%
D11*
%TO.C,R32*%
X160250000Y-101912500D03*
X160250000Y-100087500D03*
%TD*%
%TO.C,R27*%
X169000000Y-101912500D03*
X169000000Y-100087500D03*
%TD*%
%TO.C,R17*%
X172500000Y-73912500D03*
X172500000Y-72087500D03*
%TD*%
%TO.C,R4*%
X129750000Y-69000000D03*
X129750000Y-67175000D03*
%TD*%
D19*
%TO.C,U1*%
X125785000Y-63150000D03*
X127055000Y-63150000D03*
X128325000Y-63150000D03*
X129595000Y-63150000D03*
X130865000Y-63150000D03*
X132135000Y-63150000D03*
X133405000Y-63150000D03*
X134675000Y-63150000D03*
X135945000Y-63150000D03*
X137215000Y-63150000D03*
X137215000Y-53850000D03*
X135945000Y-53850000D03*
X134675000Y-53850000D03*
X133405000Y-53850000D03*
X132135000Y-53850000D03*
X130865000Y-53850000D03*
X129595000Y-53850000D03*
X128325000Y-53850000D03*
X127055000Y-53850000D03*
X125785000Y-53850000D03*
%TD*%
D12*
%TO.C,C6*%
X173500000Y-91862500D03*
X173500000Y-90137500D03*
%TD*%
D11*
%TO.C,R2*%
X126250000Y-69000000D03*
X126250000Y-67175000D03*
%TD*%
%TO.C,R16*%
X136750000Y-105912500D03*
X136750000Y-104087500D03*
%TD*%
%TO.C,R19*%
X169000000Y-73912500D03*
X169000000Y-72087500D03*
%TD*%
%TO.C,R35*%
X152000000Y-114912500D03*
X152000000Y-113087500D03*
%TD*%
%TO.C,R41*%
X133000000Y-115912500D03*
X133000000Y-114087500D03*
%TD*%
%TO.C,R7*%
X135000000Y-69000000D03*
X135000000Y-67175000D03*
%TD*%
%TO.C,R38*%
X146750000Y-114912500D03*
X146750000Y-113087500D03*
%TD*%
%TO.C,R15*%
X135000000Y-105912500D03*
X135000000Y-104087500D03*
%TD*%
D13*
%TO.C,U7*%
X154715000Y-99850000D03*
X153445000Y-99850000D03*
X152175000Y-99850000D03*
X150905000Y-99850000D03*
X149635000Y-99850000D03*
X148365000Y-99850000D03*
X147095000Y-99850000D03*
X145825000Y-99850000D03*
X144555000Y-99850000D03*
X143285000Y-99850000D03*
X143285000Y-109150000D03*
X144555000Y-109150000D03*
X145825000Y-109150000D03*
X147095000Y-109150000D03*
X148365000Y-109150000D03*
X149635000Y-109150000D03*
X150905000Y-109150000D03*
X152175000Y-109150000D03*
X153445000Y-109150000D03*
X154715000Y-109150000D03*
%TD*%
D11*
%TO.C,R1*%
X124500000Y-69000000D03*
X124500000Y-67175000D03*
%TD*%
%TO.C,R18*%
X170750000Y-73912500D03*
X170750000Y-72087500D03*
%TD*%
D13*
%TO.C,U6*%
X171715000Y-86850000D03*
X170445000Y-86850000D03*
X169175000Y-86850000D03*
X167905000Y-86850000D03*
X166635000Y-86850000D03*
X165365000Y-86850000D03*
X164095000Y-86850000D03*
X162825000Y-86850000D03*
X161555000Y-86850000D03*
X160285000Y-86850000D03*
X160285000Y-96150000D03*
X161555000Y-96150000D03*
X162825000Y-96150000D03*
X164095000Y-96150000D03*
X165365000Y-96150000D03*
X166635000Y-96150000D03*
X167905000Y-96150000D03*
X169175000Y-96150000D03*
X170445000Y-96150000D03*
X171715000Y-96150000D03*
%TD*%
D11*
%TO.C,R9*%
X124500000Y-105912500D03*
X124500000Y-104087500D03*
%TD*%
%TO.C,R5*%
X131500000Y-69000000D03*
X131500000Y-67175000D03*
%TD*%
%TO.C,R26*%
X170750000Y-101912500D03*
X170750000Y-100087500D03*
%TD*%
%TO.C,R14*%
X133250000Y-105912500D03*
X133250000Y-104087500D03*
%TD*%
%TO.C,R10*%
X126250000Y-105912500D03*
X126250000Y-104087500D03*
%TD*%
D19*
%TO.C,U2*%
X125785000Y-100150000D03*
X127055000Y-100150000D03*
X128325000Y-100150000D03*
X129595000Y-100150000D03*
X130865000Y-100150000D03*
X132135000Y-100150000D03*
X133405000Y-100150000D03*
X134675000Y-100150000D03*
X135945000Y-100150000D03*
X137215000Y-100150000D03*
X137215000Y-90850000D03*
X135945000Y-90850000D03*
X134675000Y-90850000D03*
X133405000Y-90850000D03*
X132135000Y-90850000D03*
X130865000Y-90850000D03*
X129595000Y-90850000D03*
X128325000Y-90850000D03*
X127055000Y-90850000D03*
X125785000Y-90850000D03*
%TD*%
D11*
%TO.C,R12*%
X129750000Y-105912500D03*
X129750000Y-104087500D03*
%TD*%
%TO.C,R36*%
X150250000Y-114912500D03*
X150250000Y-113087500D03*
%TD*%
%TO.C,R25*%
X172500000Y-101912500D03*
X172500000Y-100087500D03*
%TD*%
M02*
