%TF.GenerationSoftware,KiCad,Pcbnew,8.0.0*%
%TF.CreationDate,2024-03-23T18:21:10-07:00*%
%TF.ProjectId,Penta_OctoWS2811,50656e74-615f-44f6-9374-6f5753323831,rev?*%
%TF.SameCoordinates,Original*%
%TF.FileFunction,Legend,Bot*%
%TF.FilePolarity,Positive*%
%FSLAX46Y46*%
G04 Gerber Fmt 4.6, Leading zero omitted, Abs format (unit mm)*
G04 Created by KiCad (PCBNEW 8.0.0) date 2024-03-23 18:21:10*
%MOMM*%
%LPD*%
G01*
G04 APERTURE LIST*
%ADD10C,0.200000*%
%ADD11C,0.150000*%
%ADD12C,0.400000*%
%ADD13C,0.375000*%
%ADD14C,0.508000*%
%ADD15C,0.120000*%
%ADD16C,0.000000*%
G04 APERTURE END LIST*
D10*
X127406028Y-62817292D02*
X128477457Y-62817292D01*
X128477457Y-62817292D02*
X128691742Y-62745863D01*
X128691742Y-62745863D02*
X128834600Y-62603006D01*
X128834600Y-62603006D02*
X128906028Y-62388720D01*
X128906028Y-62388720D02*
X128906028Y-62245863D01*
X128906028Y-64317292D02*
X128906028Y-63460149D01*
X128906028Y-63888720D02*
X127406028Y-63888720D01*
X127406028Y-63888720D02*
X127620314Y-63745863D01*
X127620314Y-63745863D02*
X127763171Y-63603006D01*
X127763171Y-63603006D02*
X127834600Y-63460149D01*
X128906028Y-65745863D02*
X128906028Y-64888720D01*
X128906028Y-65317291D02*
X127406028Y-65317291D01*
X127406028Y-65317291D02*
X127620314Y-65174434D01*
X127620314Y-65174434D02*
X127763171Y-65031577D01*
X127763171Y-65031577D02*
X127834600Y-64888720D01*
X127906028Y-67531576D02*
X129406028Y-67531576D01*
X127977457Y-67531576D02*
X127906028Y-67674434D01*
X127906028Y-67674434D02*
X127906028Y-67960148D01*
X127906028Y-67960148D02*
X127977457Y-68103005D01*
X127977457Y-68103005D02*
X128048885Y-68174434D01*
X128048885Y-68174434D02*
X128191742Y-68245862D01*
X128191742Y-68245862D02*
X128620314Y-68245862D01*
X128620314Y-68245862D02*
X128763171Y-68174434D01*
X128763171Y-68174434D02*
X128834600Y-68103005D01*
X128834600Y-68103005D02*
X128906028Y-67960148D01*
X128906028Y-67960148D02*
X128906028Y-67674434D01*
X128906028Y-67674434D02*
X128834600Y-67531576D01*
X128906028Y-68888719D02*
X127906028Y-68888719D01*
X127406028Y-68888719D02*
X127477457Y-68817291D01*
X127477457Y-68817291D02*
X127548885Y-68888719D01*
X127548885Y-68888719D02*
X127477457Y-68960148D01*
X127477457Y-68960148D02*
X127406028Y-68888719D01*
X127406028Y-68888719D02*
X127548885Y-68888719D01*
X127906028Y-69603005D02*
X128906028Y-69603005D01*
X128048885Y-69603005D02*
X127977457Y-69674434D01*
X127977457Y-69674434D02*
X127906028Y-69817291D01*
X127906028Y-69817291D02*
X127906028Y-70031577D01*
X127906028Y-70031577D02*
X127977457Y-70174434D01*
X127977457Y-70174434D02*
X128120314Y-70245863D01*
X128120314Y-70245863D02*
X128906028Y-70245863D01*
X128048885Y-72317291D02*
X127977457Y-72174434D01*
X127977457Y-72174434D02*
X127906028Y-72103005D01*
X127906028Y-72103005D02*
X127763171Y-72031577D01*
X127763171Y-72031577D02*
X127691742Y-72031577D01*
X127691742Y-72031577D02*
X127548885Y-72103005D01*
X127548885Y-72103005D02*
X127477457Y-72174434D01*
X127477457Y-72174434D02*
X127406028Y-72317291D01*
X127406028Y-72317291D02*
X127406028Y-72603005D01*
X127406028Y-72603005D02*
X127477457Y-72745863D01*
X127477457Y-72745863D02*
X127548885Y-72817291D01*
X127548885Y-72817291D02*
X127691742Y-72888720D01*
X127691742Y-72888720D02*
X127763171Y-72888720D01*
X127763171Y-72888720D02*
X127906028Y-72817291D01*
X127906028Y-72817291D02*
X127977457Y-72745863D01*
X127977457Y-72745863D02*
X128048885Y-72603005D01*
X128048885Y-72603005D02*
X128048885Y-72317291D01*
X128048885Y-72317291D02*
X128120314Y-72174434D01*
X128120314Y-72174434D02*
X128191742Y-72103005D01*
X128191742Y-72103005D02*
X128334600Y-72031577D01*
X128334600Y-72031577D02*
X128620314Y-72031577D01*
X128620314Y-72031577D02*
X128763171Y-72103005D01*
X128763171Y-72103005D02*
X128834600Y-72174434D01*
X128834600Y-72174434D02*
X128906028Y-72317291D01*
X128906028Y-72317291D02*
X128906028Y-72603005D01*
X128906028Y-72603005D02*
X128834600Y-72745863D01*
X128834600Y-72745863D02*
X128763171Y-72817291D01*
X128763171Y-72817291D02*
X128620314Y-72888720D01*
X128620314Y-72888720D02*
X128334600Y-72888720D01*
X128334600Y-72888720D02*
X128191742Y-72817291D01*
X128191742Y-72817291D02*
X128120314Y-72745863D01*
X128120314Y-72745863D02*
X128048885Y-72603005D01*
X128906028Y-74888719D02*
X128834600Y-74745862D01*
X128834600Y-74745862D02*
X128763171Y-74674433D01*
X128763171Y-74674433D02*
X128620314Y-74603005D01*
X128620314Y-74603005D02*
X128191742Y-74603005D01*
X128191742Y-74603005D02*
X128048885Y-74674433D01*
X128048885Y-74674433D02*
X127977457Y-74745862D01*
X127977457Y-74745862D02*
X127906028Y-74888719D01*
X127906028Y-74888719D02*
X127906028Y-75103005D01*
X127906028Y-75103005D02*
X127977457Y-75245862D01*
X127977457Y-75245862D02*
X128048885Y-75317291D01*
X128048885Y-75317291D02*
X128191742Y-75388719D01*
X128191742Y-75388719D02*
X128620314Y-75388719D01*
X128620314Y-75388719D02*
X128763171Y-75317291D01*
X128763171Y-75317291D02*
X128834600Y-75245862D01*
X128834600Y-75245862D02*
X128906028Y-75103005D01*
X128906028Y-75103005D02*
X128906028Y-74888719D01*
X127906028Y-76674434D02*
X128906028Y-76674434D01*
X127906028Y-76031576D02*
X128691742Y-76031576D01*
X128691742Y-76031576D02*
X128834600Y-76103005D01*
X128834600Y-76103005D02*
X128906028Y-76245862D01*
X128906028Y-76245862D02*
X128906028Y-76460148D01*
X128906028Y-76460148D02*
X128834600Y-76603005D01*
X128834600Y-76603005D02*
X128763171Y-76674434D01*
X127906028Y-77174434D02*
X127906028Y-77745862D01*
X127406028Y-77388719D02*
X128691742Y-77388719D01*
X128691742Y-77388719D02*
X128834600Y-77460148D01*
X128834600Y-77460148D02*
X128906028Y-77603005D01*
X128906028Y-77603005D02*
X128906028Y-77745862D01*
X127906028Y-78245862D02*
X129406028Y-78245862D01*
X127977457Y-78245862D02*
X127906028Y-78388720D01*
X127906028Y-78388720D02*
X127906028Y-78674434D01*
X127906028Y-78674434D02*
X127977457Y-78817291D01*
X127977457Y-78817291D02*
X128048885Y-78888720D01*
X128048885Y-78888720D02*
X128191742Y-78960148D01*
X128191742Y-78960148D02*
X128620314Y-78960148D01*
X128620314Y-78960148D02*
X128763171Y-78888720D01*
X128763171Y-78888720D02*
X128834600Y-78817291D01*
X128834600Y-78817291D02*
X128906028Y-78674434D01*
X128906028Y-78674434D02*
X128906028Y-78388720D01*
X128906028Y-78388720D02*
X128834600Y-78245862D01*
X127906028Y-80245863D02*
X128906028Y-80245863D01*
X127906028Y-79603005D02*
X128691742Y-79603005D01*
X128691742Y-79603005D02*
X128834600Y-79674434D01*
X128834600Y-79674434D02*
X128906028Y-79817291D01*
X128906028Y-79817291D02*
X128906028Y-80031577D01*
X128906028Y-80031577D02*
X128834600Y-80174434D01*
X128834600Y-80174434D02*
X128763171Y-80245863D01*
X127906028Y-80745863D02*
X127906028Y-81317291D01*
X127406028Y-80960148D02*
X128691742Y-80960148D01*
X128691742Y-80960148D02*
X128834600Y-81031577D01*
X128834600Y-81031577D02*
X128906028Y-81174434D01*
X128906028Y-81174434D02*
X128906028Y-81317291D01*
D11*
X128846009Y-100870112D02*
X128846009Y-100536779D01*
X129369819Y-100536779D02*
X128369819Y-100536779D01*
X128369819Y-100536779D02*
X128369819Y-101012969D01*
X129322200Y-101346303D02*
X129369819Y-101489160D01*
X129369819Y-101489160D02*
X129369819Y-101727255D01*
X129369819Y-101727255D02*
X129322200Y-101822493D01*
X129322200Y-101822493D02*
X129274580Y-101870112D01*
X129274580Y-101870112D02*
X129179342Y-101917731D01*
X129179342Y-101917731D02*
X129084104Y-101917731D01*
X129084104Y-101917731D02*
X128988866Y-101870112D01*
X128988866Y-101870112D02*
X128941247Y-101822493D01*
X128941247Y-101822493D02*
X128893628Y-101727255D01*
X128893628Y-101727255D02*
X128846009Y-101536779D01*
X128846009Y-101536779D02*
X128798390Y-101441541D01*
X128798390Y-101441541D02*
X128750771Y-101393922D01*
X128750771Y-101393922D02*
X128655533Y-101346303D01*
X128655533Y-101346303D02*
X128560295Y-101346303D01*
X128560295Y-101346303D02*
X128465057Y-101393922D01*
X128465057Y-101393922D02*
X128417438Y-101441541D01*
X128417438Y-101441541D02*
X128369819Y-101536779D01*
X128369819Y-101536779D02*
X128369819Y-101774874D01*
X128369819Y-101774874D02*
X128417438Y-101917731D01*
X128893628Y-102536779D02*
X129369819Y-102536779D01*
X128369819Y-102203446D02*
X128893628Y-102536779D01*
X128893628Y-102536779D02*
X128369819Y-102870112D01*
X129369819Y-103203446D02*
X128369819Y-103203446D01*
X128369819Y-103203446D02*
X129369819Y-103774874D01*
X129369819Y-103774874D02*
X128369819Y-103774874D01*
X129274580Y-104822493D02*
X129322200Y-104774874D01*
X129322200Y-104774874D02*
X129369819Y-104632017D01*
X129369819Y-104632017D02*
X129369819Y-104536779D01*
X129369819Y-104536779D02*
X129322200Y-104393922D01*
X129322200Y-104393922D02*
X129226961Y-104298684D01*
X129226961Y-104298684D02*
X129131723Y-104251065D01*
X129131723Y-104251065D02*
X128941247Y-104203446D01*
X128941247Y-104203446D02*
X128798390Y-104203446D01*
X128798390Y-104203446D02*
X128607914Y-104251065D01*
X128607914Y-104251065D02*
X128512676Y-104298684D01*
X128512676Y-104298684D02*
X128417438Y-104393922D01*
X128417438Y-104393922D02*
X128369819Y-104536779D01*
X128369819Y-104536779D02*
X128369819Y-104632017D01*
X128369819Y-104632017D02*
X128417438Y-104774874D01*
X128417438Y-104774874D02*
X128465057Y-104822493D01*
X128322200Y-105965350D02*
X129607914Y-105108208D01*
X128417438Y-106822493D02*
X128369819Y-106727255D01*
X128369819Y-106727255D02*
X128369819Y-106584398D01*
X128369819Y-106584398D02*
X128417438Y-106441541D01*
X128417438Y-106441541D02*
X128512676Y-106346303D01*
X128512676Y-106346303D02*
X128607914Y-106298684D01*
X128607914Y-106298684D02*
X128798390Y-106251065D01*
X128798390Y-106251065D02*
X128941247Y-106251065D01*
X128941247Y-106251065D02*
X129131723Y-106298684D01*
X129131723Y-106298684D02*
X129226961Y-106346303D01*
X129226961Y-106346303D02*
X129322200Y-106441541D01*
X129322200Y-106441541D02*
X129369819Y-106584398D01*
X129369819Y-106584398D02*
X129369819Y-106679636D01*
X129369819Y-106679636D02*
X129322200Y-106822493D01*
X129322200Y-106822493D02*
X129274580Y-106870112D01*
X129274580Y-106870112D02*
X128941247Y-106870112D01*
X128941247Y-106870112D02*
X128941247Y-106679636D01*
X129369819Y-107298684D02*
X128369819Y-107298684D01*
X128369819Y-107298684D02*
X128369819Y-107679636D01*
X128369819Y-107679636D02*
X128417438Y-107774874D01*
X128417438Y-107774874D02*
X128465057Y-107822493D01*
X128465057Y-107822493D02*
X128560295Y-107870112D01*
X128560295Y-107870112D02*
X128703152Y-107870112D01*
X128703152Y-107870112D02*
X128798390Y-107822493D01*
X128798390Y-107822493D02*
X128846009Y-107774874D01*
X128846009Y-107774874D02*
X128893628Y-107679636D01*
X128893628Y-107679636D02*
X128893628Y-107298684D01*
X129369819Y-108298684D02*
X128369819Y-108298684D01*
X128369819Y-108965350D02*
X128369819Y-109155826D01*
X128369819Y-109155826D02*
X128417438Y-109251064D01*
X128417438Y-109251064D02*
X128512676Y-109346302D01*
X128512676Y-109346302D02*
X128703152Y-109393921D01*
X128703152Y-109393921D02*
X129036485Y-109393921D01*
X129036485Y-109393921D02*
X129226961Y-109346302D01*
X129226961Y-109346302D02*
X129322200Y-109251064D01*
X129322200Y-109251064D02*
X129369819Y-109155826D01*
X129369819Y-109155826D02*
X129369819Y-108965350D01*
X129369819Y-108965350D02*
X129322200Y-108870112D01*
X129322200Y-108870112D02*
X129226961Y-108774874D01*
X129226961Y-108774874D02*
X129036485Y-108727255D01*
X129036485Y-108727255D02*
X128703152Y-108727255D01*
X128703152Y-108727255D02*
X128512676Y-108774874D01*
X128512676Y-108774874D02*
X128417438Y-108870112D01*
X128417438Y-108870112D02*
X128369819Y-108965350D01*
X129369819Y-110346302D02*
X129369819Y-109774874D01*
X129369819Y-110060588D02*
X128369819Y-110060588D01*
X128369819Y-110060588D02*
X128512676Y-109965350D01*
X128512676Y-109965350D02*
X128607914Y-109870112D01*
X128607914Y-109870112D02*
X128655533Y-109774874D01*
X128465057Y-110727255D02*
X128417438Y-110774874D01*
X128417438Y-110774874D02*
X128369819Y-110870112D01*
X128369819Y-110870112D02*
X128369819Y-111108207D01*
X128369819Y-111108207D02*
X128417438Y-111203445D01*
X128417438Y-111203445D02*
X128465057Y-111251064D01*
X128465057Y-111251064D02*
X128560295Y-111298683D01*
X128560295Y-111298683D02*
X128655533Y-111298683D01*
X128655533Y-111298683D02*
X128798390Y-111251064D01*
X128798390Y-111251064D02*
X129369819Y-110679636D01*
X129369819Y-110679636D02*
X129369819Y-111298683D01*
X133917438Y-69610588D02*
X133869819Y-69515350D01*
X133869819Y-69515350D02*
X133869819Y-69372493D01*
X133869819Y-69372493D02*
X133917438Y-69229636D01*
X133917438Y-69229636D02*
X134012676Y-69134398D01*
X134012676Y-69134398D02*
X134107914Y-69086779D01*
X134107914Y-69086779D02*
X134298390Y-69039160D01*
X134298390Y-69039160D02*
X134441247Y-69039160D01*
X134441247Y-69039160D02*
X134631723Y-69086779D01*
X134631723Y-69086779D02*
X134726961Y-69134398D01*
X134726961Y-69134398D02*
X134822200Y-69229636D01*
X134822200Y-69229636D02*
X134869819Y-69372493D01*
X134869819Y-69372493D02*
X134869819Y-69467731D01*
X134869819Y-69467731D02*
X134822200Y-69610588D01*
X134822200Y-69610588D02*
X134774580Y-69658207D01*
X134774580Y-69658207D02*
X134441247Y-69658207D01*
X134441247Y-69658207D02*
X134441247Y-69467731D01*
X134869819Y-70086779D02*
X133869819Y-70086779D01*
X133869819Y-70086779D02*
X133869819Y-70467731D01*
X133869819Y-70467731D02*
X133917438Y-70562969D01*
X133917438Y-70562969D02*
X133965057Y-70610588D01*
X133965057Y-70610588D02*
X134060295Y-70658207D01*
X134060295Y-70658207D02*
X134203152Y-70658207D01*
X134203152Y-70658207D02*
X134298390Y-70610588D01*
X134298390Y-70610588D02*
X134346009Y-70562969D01*
X134346009Y-70562969D02*
X134393628Y-70467731D01*
X134393628Y-70467731D02*
X134393628Y-70086779D01*
X134869819Y-71086779D02*
X133869819Y-71086779D01*
X133869819Y-71753445D02*
X133869819Y-71943921D01*
X133869819Y-71943921D02*
X133917438Y-72039159D01*
X133917438Y-72039159D02*
X134012676Y-72134397D01*
X134012676Y-72134397D02*
X134203152Y-72182016D01*
X134203152Y-72182016D02*
X134536485Y-72182016D01*
X134536485Y-72182016D02*
X134726961Y-72134397D01*
X134726961Y-72134397D02*
X134822200Y-72039159D01*
X134822200Y-72039159D02*
X134869819Y-71943921D01*
X134869819Y-71943921D02*
X134869819Y-71753445D01*
X134869819Y-71753445D02*
X134822200Y-71658207D01*
X134822200Y-71658207D02*
X134726961Y-71562969D01*
X134726961Y-71562969D02*
X134536485Y-71515350D01*
X134536485Y-71515350D02*
X134203152Y-71515350D01*
X134203152Y-71515350D02*
X134012676Y-71562969D01*
X134012676Y-71562969D02*
X133917438Y-71658207D01*
X133917438Y-71658207D02*
X133869819Y-71753445D01*
X133965057Y-72562969D02*
X133917438Y-72610588D01*
X133917438Y-72610588D02*
X133869819Y-72705826D01*
X133869819Y-72705826D02*
X133869819Y-72943921D01*
X133869819Y-72943921D02*
X133917438Y-73039159D01*
X133917438Y-73039159D02*
X133965057Y-73086778D01*
X133965057Y-73086778D02*
X134060295Y-73134397D01*
X134060295Y-73134397D02*
X134155533Y-73134397D01*
X134155533Y-73134397D02*
X134298390Y-73086778D01*
X134298390Y-73086778D02*
X134869819Y-72515350D01*
X134869819Y-72515350D02*
X134869819Y-73134397D01*
X134203152Y-73991540D02*
X134869819Y-73991540D01*
X133822200Y-73753445D02*
X134536485Y-73515350D01*
X134536485Y-73515350D02*
X134536485Y-74134397D01*
D12*
X104373247Y-52372680D02*
X104373247Y-53629823D01*
X106873247Y-53001252D02*
X104373247Y-53001252D01*
X106754200Y-55201251D02*
X106873247Y-54991727D01*
X106873247Y-54991727D02*
X106873247Y-54572680D01*
X106873247Y-54572680D02*
X106754200Y-54363156D01*
X106754200Y-54363156D02*
X106516104Y-54258394D01*
X106516104Y-54258394D02*
X105563723Y-54258394D01*
X105563723Y-54258394D02*
X105325628Y-54363156D01*
X105325628Y-54363156D02*
X105206580Y-54572680D01*
X105206580Y-54572680D02*
X105206580Y-54991727D01*
X105206580Y-54991727D02*
X105325628Y-55201251D01*
X105325628Y-55201251D02*
X105563723Y-55306013D01*
X105563723Y-55306013D02*
X105801819Y-55306013D01*
X105801819Y-55306013D02*
X106039914Y-54258394D01*
X106754200Y-57086965D02*
X106873247Y-56877441D01*
X106873247Y-56877441D02*
X106873247Y-56458394D01*
X106873247Y-56458394D02*
X106754200Y-56248870D01*
X106754200Y-56248870D02*
X106516104Y-56144108D01*
X106516104Y-56144108D02*
X105563723Y-56144108D01*
X105563723Y-56144108D02*
X105325628Y-56248870D01*
X105325628Y-56248870D02*
X105206580Y-56458394D01*
X105206580Y-56458394D02*
X105206580Y-56877441D01*
X105206580Y-56877441D02*
X105325628Y-57086965D01*
X105325628Y-57086965D02*
X105563723Y-57191727D01*
X105563723Y-57191727D02*
X105801819Y-57191727D01*
X105801819Y-57191727D02*
X106039914Y-56144108D01*
X105206580Y-58134584D02*
X106873247Y-58134584D01*
X105444676Y-58134584D02*
X105325628Y-58239346D01*
X105325628Y-58239346D02*
X105206580Y-58448870D01*
X105206580Y-58448870D02*
X105206580Y-58763155D01*
X105206580Y-58763155D02*
X105325628Y-58972679D01*
X105325628Y-58972679D02*
X105563723Y-59077441D01*
X105563723Y-59077441D02*
X106873247Y-59077441D01*
X106754200Y-60020298D02*
X106873247Y-60229822D01*
X106873247Y-60229822D02*
X106873247Y-60648870D01*
X106873247Y-60648870D02*
X106754200Y-60858393D01*
X106754200Y-60858393D02*
X106516104Y-60963155D01*
X106516104Y-60963155D02*
X106397057Y-60963155D01*
X106397057Y-60963155D02*
X106158961Y-60858393D01*
X106158961Y-60858393D02*
X106039914Y-60648870D01*
X106039914Y-60648870D02*
X106039914Y-60334584D01*
X106039914Y-60334584D02*
X105920866Y-60125060D01*
X105920866Y-60125060D02*
X105682771Y-60020298D01*
X105682771Y-60020298D02*
X105563723Y-60020298D01*
X105563723Y-60020298D02*
X105325628Y-60125060D01*
X105325628Y-60125060D02*
X105206580Y-60334584D01*
X105206580Y-60334584D02*
X105206580Y-60648870D01*
X105206580Y-60648870D02*
X105325628Y-60858393D01*
X105206580Y-61696488D02*
X106873247Y-62220298D01*
X105206580Y-62744107D02*
X106873247Y-62220298D01*
X106873247Y-62220298D02*
X107468485Y-62010774D01*
X107468485Y-62010774D02*
X107587533Y-61906012D01*
X107587533Y-61906012D02*
X107706580Y-61696488D01*
X105206580Y-66201249D02*
X106873247Y-66201249D01*
X104254200Y-65677440D02*
X106039914Y-65153630D01*
X106039914Y-65153630D02*
X106039914Y-66515535D01*
X106635152Y-67353630D02*
X106754200Y-67458392D01*
X106754200Y-67458392D02*
X106873247Y-67353630D01*
X106873247Y-67353630D02*
X106754200Y-67248868D01*
X106754200Y-67248868D02*
X106635152Y-67353630D01*
X106635152Y-67353630D02*
X106873247Y-67353630D01*
X104373247Y-68820297D02*
X104373247Y-69029820D01*
X104373247Y-69029820D02*
X104492295Y-69239344D01*
X104492295Y-69239344D02*
X104611342Y-69344106D01*
X104611342Y-69344106D02*
X104849438Y-69448868D01*
X104849438Y-69448868D02*
X105325628Y-69553630D01*
X105325628Y-69553630D02*
X105920866Y-69553630D01*
X105920866Y-69553630D02*
X106397057Y-69448868D01*
X106397057Y-69448868D02*
X106635152Y-69344106D01*
X106635152Y-69344106D02*
X106754200Y-69239344D01*
X106754200Y-69239344D02*
X106873247Y-69029820D01*
X106873247Y-69029820D02*
X106873247Y-68820297D01*
X106873247Y-68820297D02*
X106754200Y-68610773D01*
X106754200Y-68610773D02*
X106635152Y-68506011D01*
X106635152Y-68506011D02*
X106397057Y-68401249D01*
X106397057Y-68401249D02*
X105920866Y-68296487D01*
X105920866Y-68296487D02*
X105325628Y-68296487D01*
X105325628Y-68296487D02*
X104849438Y-68401249D01*
X104849438Y-68401249D02*
X104611342Y-68506011D01*
X104611342Y-68506011D02*
X104492295Y-68610773D01*
X104492295Y-68610773D02*
X104373247Y-68820297D01*
X104254200Y-72067916D02*
X107468485Y-70182201D01*
X105206580Y-73744106D02*
X106873247Y-73744106D01*
X104254200Y-73220297D02*
X106039914Y-72696487D01*
X106039914Y-72696487D02*
X106039914Y-74058392D01*
X106635152Y-74896487D02*
X106754200Y-75001249D01*
X106754200Y-75001249D02*
X106873247Y-74896487D01*
X106873247Y-74896487D02*
X106754200Y-74791725D01*
X106754200Y-74791725D02*
X106635152Y-74896487D01*
X106635152Y-74896487D02*
X106873247Y-74896487D01*
X106873247Y-77096487D02*
X106873247Y-75839344D01*
X106873247Y-76467916D02*
X104373247Y-76467916D01*
X104373247Y-76467916D02*
X104730390Y-76258392D01*
X104730390Y-76258392D02*
X104968485Y-76048868D01*
X104968485Y-76048868D02*
X105087533Y-75839344D01*
X106873247Y-79715534D02*
X104373247Y-79715534D01*
X104373247Y-79715534D02*
X104373247Y-80553629D01*
X104373247Y-80553629D02*
X104492295Y-80763153D01*
X104492295Y-80763153D02*
X104611342Y-80867915D01*
X104611342Y-80867915D02*
X104849438Y-80972677D01*
X104849438Y-80972677D02*
X105206580Y-80972677D01*
X105206580Y-80972677D02*
X105444676Y-80867915D01*
X105444676Y-80867915D02*
X105563723Y-80763153D01*
X105563723Y-80763153D02*
X105682771Y-80553629D01*
X105682771Y-80553629D02*
X105682771Y-79715534D01*
X106754200Y-82753629D02*
X106873247Y-82544105D01*
X106873247Y-82544105D02*
X106873247Y-82125058D01*
X106873247Y-82125058D02*
X106754200Y-81915534D01*
X106754200Y-81915534D02*
X106516104Y-81810772D01*
X106516104Y-81810772D02*
X105563723Y-81810772D01*
X105563723Y-81810772D02*
X105325628Y-81915534D01*
X105325628Y-81915534D02*
X105206580Y-82125058D01*
X105206580Y-82125058D02*
X105206580Y-82544105D01*
X105206580Y-82544105D02*
X105325628Y-82753629D01*
X105325628Y-82753629D02*
X105563723Y-82858391D01*
X105563723Y-82858391D02*
X105801819Y-82858391D01*
X105801819Y-82858391D02*
X106039914Y-81810772D01*
X105206580Y-83801248D02*
X106873247Y-83801248D01*
X105444676Y-83801248D02*
X105325628Y-83906010D01*
X105325628Y-83906010D02*
X105206580Y-84115534D01*
X105206580Y-84115534D02*
X105206580Y-84429819D01*
X105206580Y-84429819D02*
X105325628Y-84639343D01*
X105325628Y-84639343D02*
X105563723Y-84744105D01*
X105563723Y-84744105D02*
X106873247Y-84744105D01*
X105206580Y-85477438D02*
X105206580Y-86315534D01*
X104373247Y-85791724D02*
X106516104Y-85791724D01*
X106516104Y-85791724D02*
X106754200Y-85896486D01*
X106754200Y-85896486D02*
X106873247Y-86106010D01*
X106873247Y-86106010D02*
X106873247Y-86315534D01*
X106873247Y-87991724D02*
X105563723Y-87991724D01*
X105563723Y-87991724D02*
X105325628Y-87886962D01*
X105325628Y-87886962D02*
X105206580Y-87677438D01*
X105206580Y-87677438D02*
X105206580Y-87258391D01*
X105206580Y-87258391D02*
X105325628Y-87048867D01*
X106754200Y-87991724D02*
X106873247Y-87782200D01*
X106873247Y-87782200D02*
X106873247Y-87258391D01*
X106873247Y-87258391D02*
X106754200Y-87048867D01*
X106754200Y-87048867D02*
X106516104Y-86944105D01*
X106516104Y-86944105D02*
X106278009Y-86944105D01*
X106278009Y-86944105D02*
X106039914Y-87048867D01*
X106039914Y-87048867D02*
X105920866Y-87258391D01*
X105920866Y-87258391D02*
X105920866Y-87782200D01*
X105920866Y-87782200D02*
X105801819Y-87991724D01*
X105920866Y-89039343D02*
X105920866Y-90715534D01*
X104373247Y-92182201D02*
X104373247Y-92601248D01*
X104373247Y-92601248D02*
X104492295Y-92810772D01*
X104492295Y-92810772D02*
X104730390Y-93020296D01*
X104730390Y-93020296D02*
X105206580Y-93125058D01*
X105206580Y-93125058D02*
X106039914Y-93125058D01*
X106039914Y-93125058D02*
X106516104Y-93020296D01*
X106516104Y-93020296D02*
X106754200Y-92810772D01*
X106754200Y-92810772D02*
X106873247Y-92601248D01*
X106873247Y-92601248D02*
X106873247Y-92182201D01*
X106873247Y-92182201D02*
X106754200Y-91972677D01*
X106754200Y-91972677D02*
X106516104Y-91763153D01*
X106516104Y-91763153D02*
X106039914Y-91658391D01*
X106039914Y-91658391D02*
X105206580Y-91658391D01*
X105206580Y-91658391D02*
X104730390Y-91763153D01*
X104730390Y-91763153D02*
X104492295Y-91972677D01*
X104492295Y-91972677D02*
X104373247Y-92182201D01*
X106754200Y-95010772D02*
X106873247Y-94801248D01*
X106873247Y-94801248D02*
X106873247Y-94382201D01*
X106873247Y-94382201D02*
X106754200Y-94172677D01*
X106754200Y-94172677D02*
X106635152Y-94067915D01*
X106635152Y-94067915D02*
X106397057Y-93963153D01*
X106397057Y-93963153D02*
X105682771Y-93963153D01*
X105682771Y-93963153D02*
X105444676Y-94067915D01*
X105444676Y-94067915D02*
X105325628Y-94172677D01*
X105325628Y-94172677D02*
X105206580Y-94382201D01*
X105206580Y-94382201D02*
X105206580Y-94801248D01*
X105206580Y-94801248D02*
X105325628Y-95010772D01*
X105206580Y-95639343D02*
X105206580Y-96477439D01*
X104373247Y-95953629D02*
X106516104Y-95953629D01*
X106516104Y-95953629D02*
X106754200Y-96058391D01*
X106754200Y-96058391D02*
X106873247Y-96267915D01*
X106873247Y-96267915D02*
X106873247Y-96477439D01*
X106873247Y-97525058D02*
X106754200Y-97315534D01*
X106754200Y-97315534D02*
X106635152Y-97210772D01*
X106635152Y-97210772D02*
X106397057Y-97106010D01*
X106397057Y-97106010D02*
X105682771Y-97106010D01*
X105682771Y-97106010D02*
X105444676Y-97210772D01*
X105444676Y-97210772D02*
X105325628Y-97315534D01*
X105325628Y-97315534D02*
X105206580Y-97525058D01*
X105206580Y-97525058D02*
X105206580Y-97839343D01*
X105206580Y-97839343D02*
X105325628Y-98048867D01*
X105325628Y-98048867D02*
X105444676Y-98153629D01*
X105444676Y-98153629D02*
X105682771Y-98258391D01*
X105682771Y-98258391D02*
X106397057Y-98258391D01*
X106397057Y-98258391D02*
X106635152Y-98153629D01*
X106635152Y-98153629D02*
X106754200Y-98048867D01*
X106754200Y-98048867D02*
X106873247Y-97839343D01*
X106873247Y-97839343D02*
X106873247Y-97525058D01*
X104373247Y-98991724D02*
X106873247Y-99515534D01*
X106873247Y-99515534D02*
X105087533Y-99934581D01*
X105087533Y-99934581D02*
X106873247Y-100353629D01*
X106873247Y-100353629D02*
X104373247Y-100877439D01*
X106635152Y-102972677D02*
X106754200Y-102867915D01*
X106754200Y-102867915D02*
X106873247Y-102553629D01*
X106873247Y-102553629D02*
X106873247Y-102344105D01*
X106873247Y-102344105D02*
X106754200Y-102029820D01*
X106754200Y-102029820D02*
X106516104Y-101820296D01*
X106516104Y-101820296D02*
X106278009Y-101715534D01*
X106278009Y-101715534D02*
X105801819Y-101610772D01*
X105801819Y-101610772D02*
X105444676Y-101610772D01*
X105444676Y-101610772D02*
X104968485Y-101715534D01*
X104968485Y-101715534D02*
X104730390Y-101820296D01*
X104730390Y-101820296D02*
X104492295Y-102029820D01*
X104492295Y-102029820D02*
X104373247Y-102344105D01*
X104373247Y-102344105D02*
X104373247Y-102553629D01*
X104373247Y-102553629D02*
X104492295Y-102867915D01*
X104492295Y-102867915D02*
X104611342Y-102972677D01*
X104611342Y-103810772D02*
X104492295Y-103915534D01*
X104492295Y-103915534D02*
X104373247Y-104125058D01*
X104373247Y-104125058D02*
X104373247Y-104648867D01*
X104373247Y-104648867D02*
X104492295Y-104858391D01*
X104492295Y-104858391D02*
X104611342Y-104963153D01*
X104611342Y-104963153D02*
X104849438Y-105067915D01*
X104849438Y-105067915D02*
X105087533Y-105067915D01*
X105087533Y-105067915D02*
X105444676Y-104963153D01*
X105444676Y-104963153D02*
X106873247Y-103706010D01*
X106873247Y-103706010D02*
X106873247Y-105067915D01*
X105444676Y-106325058D02*
X105325628Y-106115534D01*
X105325628Y-106115534D02*
X105206580Y-106010772D01*
X105206580Y-106010772D02*
X104968485Y-105906010D01*
X104968485Y-105906010D02*
X104849438Y-105906010D01*
X104849438Y-105906010D02*
X104611342Y-106010772D01*
X104611342Y-106010772D02*
X104492295Y-106115534D01*
X104492295Y-106115534D02*
X104373247Y-106325058D01*
X104373247Y-106325058D02*
X104373247Y-106744105D01*
X104373247Y-106744105D02*
X104492295Y-106953629D01*
X104492295Y-106953629D02*
X104611342Y-107058391D01*
X104611342Y-107058391D02*
X104849438Y-107163153D01*
X104849438Y-107163153D02*
X104968485Y-107163153D01*
X104968485Y-107163153D02*
X105206580Y-107058391D01*
X105206580Y-107058391D02*
X105325628Y-106953629D01*
X105325628Y-106953629D02*
X105444676Y-106744105D01*
X105444676Y-106744105D02*
X105444676Y-106325058D01*
X105444676Y-106325058D02*
X105563723Y-106115534D01*
X105563723Y-106115534D02*
X105682771Y-106010772D01*
X105682771Y-106010772D02*
X105920866Y-105906010D01*
X105920866Y-105906010D02*
X106397057Y-105906010D01*
X106397057Y-105906010D02*
X106635152Y-106010772D01*
X106635152Y-106010772D02*
X106754200Y-106115534D01*
X106754200Y-106115534D02*
X106873247Y-106325058D01*
X106873247Y-106325058D02*
X106873247Y-106744105D01*
X106873247Y-106744105D02*
X106754200Y-106953629D01*
X106754200Y-106953629D02*
X106635152Y-107058391D01*
X106635152Y-107058391D02*
X106397057Y-107163153D01*
X106397057Y-107163153D02*
X105920866Y-107163153D01*
X105920866Y-107163153D02*
X105682771Y-107058391D01*
X105682771Y-107058391D02*
X105563723Y-106953629D01*
X105563723Y-106953629D02*
X105444676Y-106744105D01*
X106873247Y-109258391D02*
X106873247Y-108001248D01*
X106873247Y-108629820D02*
X104373247Y-108629820D01*
X104373247Y-108629820D02*
X104730390Y-108420296D01*
X104730390Y-108420296D02*
X104968485Y-108210772D01*
X104968485Y-108210772D02*
X105087533Y-108001248D01*
X106873247Y-111353629D02*
X106873247Y-110096486D01*
X106873247Y-110725058D02*
X104373247Y-110725058D01*
X104373247Y-110725058D02*
X104730390Y-110515534D01*
X104730390Y-110515534D02*
X104968485Y-110306010D01*
X104968485Y-110306010D02*
X105087533Y-110096486D01*
X106158961Y-113867914D02*
X106158961Y-114915533D01*
X106873247Y-113658390D02*
X104373247Y-114391724D01*
X104373247Y-114391724D02*
X106873247Y-115125057D01*
X106873247Y-116801247D02*
X104373247Y-116801247D01*
X106754200Y-116801247D02*
X106873247Y-116591723D01*
X106873247Y-116591723D02*
X106873247Y-116172676D01*
X106873247Y-116172676D02*
X106754200Y-115963152D01*
X106754200Y-115963152D02*
X106635152Y-115858390D01*
X106635152Y-115858390D02*
X106397057Y-115753628D01*
X106397057Y-115753628D02*
X105682771Y-115753628D01*
X105682771Y-115753628D02*
X105444676Y-115858390D01*
X105444676Y-115858390D02*
X105325628Y-115963152D01*
X105325628Y-115963152D02*
X105206580Y-116172676D01*
X105206580Y-116172676D02*
X105206580Y-116591723D01*
X105206580Y-116591723D02*
X105325628Y-116801247D01*
X106873247Y-118791723D02*
X105563723Y-118791723D01*
X105563723Y-118791723D02*
X105325628Y-118686961D01*
X105325628Y-118686961D02*
X105206580Y-118477437D01*
X105206580Y-118477437D02*
X105206580Y-118058390D01*
X105206580Y-118058390D02*
X105325628Y-117848866D01*
X106754200Y-118791723D02*
X106873247Y-118582199D01*
X106873247Y-118582199D02*
X106873247Y-118058390D01*
X106873247Y-118058390D02*
X106754200Y-117848866D01*
X106754200Y-117848866D02*
X106516104Y-117744104D01*
X106516104Y-117744104D02*
X106278009Y-117744104D01*
X106278009Y-117744104D02*
X106039914Y-117848866D01*
X106039914Y-117848866D02*
X105920866Y-118058390D01*
X105920866Y-118058390D02*
X105920866Y-118582199D01*
X105920866Y-118582199D02*
X105801819Y-118791723D01*
X105206580Y-119839342D02*
X107706580Y-119839342D01*
X105325628Y-119839342D02*
X105206580Y-120048866D01*
X105206580Y-120048866D02*
X105206580Y-120467913D01*
X105206580Y-120467913D02*
X105325628Y-120677437D01*
X105325628Y-120677437D02*
X105444676Y-120782199D01*
X105444676Y-120782199D02*
X105682771Y-120886961D01*
X105682771Y-120886961D02*
X106397057Y-120886961D01*
X106397057Y-120886961D02*
X106635152Y-120782199D01*
X106635152Y-120782199D02*
X106754200Y-120677437D01*
X106754200Y-120677437D02*
X106873247Y-120467913D01*
X106873247Y-120467913D02*
X106873247Y-120048866D01*
X106873247Y-120048866D02*
X106754200Y-119839342D01*
X105206580Y-121515532D02*
X105206580Y-122353628D01*
X104373247Y-121829818D02*
X106516104Y-121829818D01*
X106516104Y-121829818D02*
X106754200Y-121934580D01*
X106754200Y-121934580D02*
X106873247Y-122144104D01*
X106873247Y-122144104D02*
X106873247Y-122353628D01*
X106754200Y-123925056D02*
X106873247Y-123715532D01*
X106873247Y-123715532D02*
X106873247Y-123296485D01*
X106873247Y-123296485D02*
X106754200Y-123086961D01*
X106754200Y-123086961D02*
X106516104Y-122982199D01*
X106516104Y-122982199D02*
X105563723Y-122982199D01*
X105563723Y-122982199D02*
X105325628Y-123086961D01*
X105325628Y-123086961D02*
X105206580Y-123296485D01*
X105206580Y-123296485D02*
X105206580Y-123715532D01*
X105206580Y-123715532D02*
X105325628Y-123925056D01*
X105325628Y-123925056D02*
X105563723Y-124029818D01*
X105563723Y-124029818D02*
X105801819Y-124029818D01*
X105801819Y-124029818D02*
X106039914Y-122982199D01*
X106873247Y-124972675D02*
X105206580Y-124972675D01*
X105682771Y-124972675D02*
X105444676Y-125077437D01*
X105444676Y-125077437D02*
X105325628Y-125182199D01*
X105325628Y-125182199D02*
X105206580Y-125391723D01*
X105206580Y-125391723D02*
X105206580Y-125601246D01*
D10*
X144406028Y-63317292D02*
X145477457Y-63317292D01*
X145477457Y-63317292D02*
X145691742Y-63245863D01*
X145691742Y-63245863D02*
X145834600Y-63103006D01*
X145834600Y-63103006D02*
X145906028Y-62888720D01*
X145906028Y-62888720D02*
X145906028Y-62745863D01*
X145906028Y-64817292D02*
X145906028Y-63960149D01*
X145906028Y-64388720D02*
X144406028Y-64388720D01*
X144406028Y-64388720D02*
X144620314Y-64245863D01*
X144620314Y-64245863D02*
X144763171Y-64103006D01*
X144763171Y-64103006D02*
X144834600Y-63960149D01*
X145906028Y-66245863D02*
X145906028Y-65388720D01*
X145906028Y-65817291D02*
X144406028Y-65817291D01*
X144406028Y-65817291D02*
X144620314Y-65674434D01*
X144620314Y-65674434D02*
X144763171Y-65531577D01*
X144763171Y-65531577D02*
X144834600Y-65388720D01*
X144906028Y-68031576D02*
X146406028Y-68031576D01*
X144977457Y-68031576D02*
X144906028Y-68174434D01*
X144906028Y-68174434D02*
X144906028Y-68460148D01*
X144906028Y-68460148D02*
X144977457Y-68603005D01*
X144977457Y-68603005D02*
X145048885Y-68674434D01*
X145048885Y-68674434D02*
X145191742Y-68745862D01*
X145191742Y-68745862D02*
X145620314Y-68745862D01*
X145620314Y-68745862D02*
X145763171Y-68674434D01*
X145763171Y-68674434D02*
X145834600Y-68603005D01*
X145834600Y-68603005D02*
X145906028Y-68460148D01*
X145906028Y-68460148D02*
X145906028Y-68174434D01*
X145906028Y-68174434D02*
X145834600Y-68031576D01*
X145906028Y-69388719D02*
X144906028Y-69388719D01*
X144406028Y-69388719D02*
X144477457Y-69317291D01*
X144477457Y-69317291D02*
X144548885Y-69388719D01*
X144548885Y-69388719D02*
X144477457Y-69460148D01*
X144477457Y-69460148D02*
X144406028Y-69388719D01*
X144406028Y-69388719D02*
X144548885Y-69388719D01*
X144906028Y-70103005D02*
X145906028Y-70103005D01*
X145048885Y-70103005D02*
X144977457Y-70174434D01*
X144977457Y-70174434D02*
X144906028Y-70317291D01*
X144906028Y-70317291D02*
X144906028Y-70531577D01*
X144906028Y-70531577D02*
X144977457Y-70674434D01*
X144977457Y-70674434D02*
X145120314Y-70745863D01*
X145120314Y-70745863D02*
X145906028Y-70745863D01*
X144406028Y-73245863D02*
X144406028Y-72960148D01*
X144406028Y-72960148D02*
X144477457Y-72817291D01*
X144477457Y-72817291D02*
X144548885Y-72745863D01*
X144548885Y-72745863D02*
X144763171Y-72603005D01*
X144763171Y-72603005D02*
X145048885Y-72531577D01*
X145048885Y-72531577D02*
X145620314Y-72531577D01*
X145620314Y-72531577D02*
X145763171Y-72603005D01*
X145763171Y-72603005D02*
X145834600Y-72674434D01*
X145834600Y-72674434D02*
X145906028Y-72817291D01*
X145906028Y-72817291D02*
X145906028Y-73103005D01*
X145906028Y-73103005D02*
X145834600Y-73245863D01*
X145834600Y-73245863D02*
X145763171Y-73317291D01*
X145763171Y-73317291D02*
X145620314Y-73388720D01*
X145620314Y-73388720D02*
X145263171Y-73388720D01*
X145263171Y-73388720D02*
X145120314Y-73317291D01*
X145120314Y-73317291D02*
X145048885Y-73245863D01*
X145048885Y-73245863D02*
X144977457Y-73103005D01*
X144977457Y-73103005D02*
X144977457Y-72817291D01*
X144977457Y-72817291D02*
X145048885Y-72674434D01*
X145048885Y-72674434D02*
X145120314Y-72603005D01*
X145120314Y-72603005D02*
X145263171Y-72531577D01*
X145906028Y-75388719D02*
X145834600Y-75245862D01*
X145834600Y-75245862D02*
X145763171Y-75174433D01*
X145763171Y-75174433D02*
X145620314Y-75103005D01*
X145620314Y-75103005D02*
X145191742Y-75103005D01*
X145191742Y-75103005D02*
X145048885Y-75174433D01*
X145048885Y-75174433D02*
X144977457Y-75245862D01*
X144977457Y-75245862D02*
X144906028Y-75388719D01*
X144906028Y-75388719D02*
X144906028Y-75603005D01*
X144906028Y-75603005D02*
X144977457Y-75745862D01*
X144977457Y-75745862D02*
X145048885Y-75817291D01*
X145048885Y-75817291D02*
X145191742Y-75888719D01*
X145191742Y-75888719D02*
X145620314Y-75888719D01*
X145620314Y-75888719D02*
X145763171Y-75817291D01*
X145763171Y-75817291D02*
X145834600Y-75745862D01*
X145834600Y-75745862D02*
X145906028Y-75603005D01*
X145906028Y-75603005D02*
X145906028Y-75388719D01*
X144906028Y-77174434D02*
X145906028Y-77174434D01*
X144906028Y-76531576D02*
X145691742Y-76531576D01*
X145691742Y-76531576D02*
X145834600Y-76603005D01*
X145834600Y-76603005D02*
X145906028Y-76745862D01*
X145906028Y-76745862D02*
X145906028Y-76960148D01*
X145906028Y-76960148D02*
X145834600Y-77103005D01*
X145834600Y-77103005D02*
X145763171Y-77174434D01*
X144906028Y-77674434D02*
X144906028Y-78245862D01*
X144406028Y-77888719D02*
X145691742Y-77888719D01*
X145691742Y-77888719D02*
X145834600Y-77960148D01*
X145834600Y-77960148D02*
X145906028Y-78103005D01*
X145906028Y-78103005D02*
X145906028Y-78245862D01*
X144906028Y-78745862D02*
X146406028Y-78745862D01*
X144977457Y-78745862D02*
X144906028Y-78888720D01*
X144906028Y-78888720D02*
X144906028Y-79174434D01*
X144906028Y-79174434D02*
X144977457Y-79317291D01*
X144977457Y-79317291D02*
X145048885Y-79388720D01*
X145048885Y-79388720D02*
X145191742Y-79460148D01*
X145191742Y-79460148D02*
X145620314Y-79460148D01*
X145620314Y-79460148D02*
X145763171Y-79388720D01*
X145763171Y-79388720D02*
X145834600Y-79317291D01*
X145834600Y-79317291D02*
X145906028Y-79174434D01*
X145906028Y-79174434D02*
X145906028Y-78888720D01*
X145906028Y-78888720D02*
X145834600Y-78745862D01*
X144906028Y-80745863D02*
X145906028Y-80745863D01*
X144906028Y-80103005D02*
X145691742Y-80103005D01*
X145691742Y-80103005D02*
X145834600Y-80174434D01*
X145834600Y-80174434D02*
X145906028Y-80317291D01*
X145906028Y-80317291D02*
X145906028Y-80531577D01*
X145906028Y-80531577D02*
X145834600Y-80674434D01*
X145834600Y-80674434D02*
X145763171Y-80745863D01*
X144906028Y-81245863D02*
X144906028Y-81817291D01*
X144406028Y-81460148D02*
X145691742Y-81460148D01*
X145691742Y-81460148D02*
X145834600Y-81531577D01*
X145834600Y-81531577D02*
X145906028Y-81674434D01*
X145906028Y-81674434D02*
X145906028Y-81817291D01*
X125220314Y-100288720D02*
X125220314Y-99788720D01*
X126006028Y-99788720D02*
X124506028Y-99788720D01*
X124506028Y-99788720D02*
X124506028Y-100503006D01*
X125934600Y-101003006D02*
X126006028Y-101217292D01*
X126006028Y-101217292D02*
X126006028Y-101574434D01*
X126006028Y-101574434D02*
X125934600Y-101717292D01*
X125934600Y-101717292D02*
X125863171Y-101788720D01*
X125863171Y-101788720D02*
X125720314Y-101860149D01*
X125720314Y-101860149D02*
X125577457Y-101860149D01*
X125577457Y-101860149D02*
X125434600Y-101788720D01*
X125434600Y-101788720D02*
X125363171Y-101717292D01*
X125363171Y-101717292D02*
X125291742Y-101574434D01*
X125291742Y-101574434D02*
X125220314Y-101288720D01*
X125220314Y-101288720D02*
X125148885Y-101145863D01*
X125148885Y-101145863D02*
X125077457Y-101074434D01*
X125077457Y-101074434D02*
X124934600Y-101003006D01*
X124934600Y-101003006D02*
X124791742Y-101003006D01*
X124791742Y-101003006D02*
X124648885Y-101074434D01*
X124648885Y-101074434D02*
X124577457Y-101145863D01*
X124577457Y-101145863D02*
X124506028Y-101288720D01*
X124506028Y-101288720D02*
X124506028Y-101645863D01*
X124506028Y-101645863D02*
X124577457Y-101860149D01*
X125291742Y-102788720D02*
X126006028Y-102788720D01*
X124506028Y-102288720D02*
X125291742Y-102788720D01*
X125291742Y-102788720D02*
X124506028Y-103288720D01*
X126006028Y-103788719D02*
X124506028Y-103788719D01*
X124506028Y-103788719D02*
X126006028Y-104645862D01*
X126006028Y-104645862D02*
X124506028Y-104645862D01*
X125863171Y-106217291D02*
X125934600Y-106145863D01*
X125934600Y-106145863D02*
X126006028Y-105931577D01*
X126006028Y-105931577D02*
X126006028Y-105788720D01*
X126006028Y-105788720D02*
X125934600Y-105574434D01*
X125934600Y-105574434D02*
X125791742Y-105431577D01*
X125791742Y-105431577D02*
X125648885Y-105360148D01*
X125648885Y-105360148D02*
X125363171Y-105288720D01*
X125363171Y-105288720D02*
X125148885Y-105288720D01*
X125148885Y-105288720D02*
X124863171Y-105360148D01*
X124863171Y-105360148D02*
X124720314Y-105431577D01*
X124720314Y-105431577D02*
X124577457Y-105574434D01*
X124577457Y-105574434D02*
X124506028Y-105788720D01*
X124506028Y-105788720D02*
X124506028Y-105931577D01*
X124506028Y-105931577D02*
X124577457Y-106145863D01*
X124577457Y-106145863D02*
X124648885Y-106217291D01*
X126006028Y-108217291D02*
X125934600Y-108074434D01*
X125934600Y-108074434D02*
X125863171Y-108003005D01*
X125863171Y-108003005D02*
X125720314Y-107931577D01*
X125720314Y-107931577D02*
X125291742Y-107931577D01*
X125291742Y-107931577D02*
X125148885Y-108003005D01*
X125148885Y-108003005D02*
X125077457Y-108074434D01*
X125077457Y-108074434D02*
X125006028Y-108217291D01*
X125006028Y-108217291D02*
X125006028Y-108431577D01*
X125006028Y-108431577D02*
X125077457Y-108574434D01*
X125077457Y-108574434D02*
X125148885Y-108645863D01*
X125148885Y-108645863D02*
X125291742Y-108717291D01*
X125291742Y-108717291D02*
X125720314Y-108717291D01*
X125720314Y-108717291D02*
X125863171Y-108645863D01*
X125863171Y-108645863D02*
X125934600Y-108574434D01*
X125934600Y-108574434D02*
X126006028Y-108431577D01*
X126006028Y-108431577D02*
X126006028Y-108217291D01*
X125006028Y-110003006D02*
X126006028Y-110003006D01*
X125006028Y-109360148D02*
X125791742Y-109360148D01*
X125791742Y-109360148D02*
X125934600Y-109431577D01*
X125934600Y-109431577D02*
X126006028Y-109574434D01*
X126006028Y-109574434D02*
X126006028Y-109788720D01*
X126006028Y-109788720D02*
X125934600Y-109931577D01*
X125934600Y-109931577D02*
X125863171Y-110003006D01*
X125006028Y-110503006D02*
X125006028Y-111074434D01*
X124506028Y-110717291D02*
X125791742Y-110717291D01*
X125791742Y-110717291D02*
X125934600Y-110788720D01*
X125934600Y-110788720D02*
X126006028Y-110931577D01*
X126006028Y-110931577D02*
X126006028Y-111074434D01*
X125006028Y-111574434D02*
X126506028Y-111574434D01*
X125077457Y-111574434D02*
X125006028Y-111717292D01*
X125006028Y-111717292D02*
X125006028Y-112003006D01*
X125006028Y-112003006D02*
X125077457Y-112145863D01*
X125077457Y-112145863D02*
X125148885Y-112217292D01*
X125148885Y-112217292D02*
X125291742Y-112288720D01*
X125291742Y-112288720D02*
X125720314Y-112288720D01*
X125720314Y-112288720D02*
X125863171Y-112217292D01*
X125863171Y-112217292D02*
X125934600Y-112145863D01*
X125934600Y-112145863D02*
X126006028Y-112003006D01*
X126006028Y-112003006D02*
X126006028Y-111717292D01*
X126006028Y-111717292D02*
X125934600Y-111574434D01*
X125006028Y-113574435D02*
X126006028Y-113574435D01*
X125006028Y-112931577D02*
X125791742Y-112931577D01*
X125791742Y-112931577D02*
X125934600Y-113003006D01*
X125934600Y-113003006D02*
X126006028Y-113145863D01*
X126006028Y-113145863D02*
X126006028Y-113360149D01*
X126006028Y-113360149D02*
X125934600Y-113503006D01*
X125934600Y-113503006D02*
X125863171Y-113574435D01*
X125006028Y-114074435D02*
X125006028Y-114645863D01*
X124506028Y-114288720D02*
X125791742Y-114288720D01*
X125791742Y-114288720D02*
X125934600Y-114360149D01*
X125934600Y-114360149D02*
X126006028Y-114503006D01*
X126006028Y-114503006D02*
X126006028Y-114645863D01*
D11*
X151317438Y-69660588D02*
X151269819Y-69565350D01*
X151269819Y-69565350D02*
X151269819Y-69422493D01*
X151269819Y-69422493D02*
X151317438Y-69279636D01*
X151317438Y-69279636D02*
X151412676Y-69184398D01*
X151412676Y-69184398D02*
X151507914Y-69136779D01*
X151507914Y-69136779D02*
X151698390Y-69089160D01*
X151698390Y-69089160D02*
X151841247Y-69089160D01*
X151841247Y-69089160D02*
X152031723Y-69136779D01*
X152031723Y-69136779D02*
X152126961Y-69184398D01*
X152126961Y-69184398D02*
X152222200Y-69279636D01*
X152222200Y-69279636D02*
X152269819Y-69422493D01*
X152269819Y-69422493D02*
X152269819Y-69517731D01*
X152269819Y-69517731D02*
X152222200Y-69660588D01*
X152222200Y-69660588D02*
X152174580Y-69708207D01*
X152174580Y-69708207D02*
X151841247Y-69708207D01*
X151841247Y-69708207D02*
X151841247Y-69517731D01*
X152269819Y-70136779D02*
X151269819Y-70136779D01*
X151269819Y-70136779D02*
X151269819Y-70517731D01*
X151269819Y-70517731D02*
X151317438Y-70612969D01*
X151317438Y-70612969D02*
X151365057Y-70660588D01*
X151365057Y-70660588D02*
X151460295Y-70708207D01*
X151460295Y-70708207D02*
X151603152Y-70708207D01*
X151603152Y-70708207D02*
X151698390Y-70660588D01*
X151698390Y-70660588D02*
X151746009Y-70612969D01*
X151746009Y-70612969D02*
X151793628Y-70517731D01*
X151793628Y-70517731D02*
X151793628Y-70136779D01*
X152269819Y-71136779D02*
X151269819Y-71136779D01*
X151269819Y-71803445D02*
X151269819Y-71993921D01*
X151269819Y-71993921D02*
X151317438Y-72089159D01*
X151317438Y-72089159D02*
X151412676Y-72184397D01*
X151412676Y-72184397D02*
X151603152Y-72232016D01*
X151603152Y-72232016D02*
X151936485Y-72232016D01*
X151936485Y-72232016D02*
X152126961Y-72184397D01*
X152126961Y-72184397D02*
X152222200Y-72089159D01*
X152222200Y-72089159D02*
X152269819Y-71993921D01*
X152269819Y-71993921D02*
X152269819Y-71803445D01*
X152269819Y-71803445D02*
X152222200Y-71708207D01*
X152222200Y-71708207D02*
X152126961Y-71612969D01*
X152126961Y-71612969D02*
X151936485Y-71565350D01*
X151936485Y-71565350D02*
X151603152Y-71565350D01*
X151603152Y-71565350D02*
X151412676Y-71612969D01*
X151412676Y-71612969D02*
X151317438Y-71708207D01*
X151317438Y-71708207D02*
X151269819Y-71803445D01*
X151603152Y-73089159D02*
X152269819Y-73089159D01*
X151222200Y-72851064D02*
X151936485Y-72612969D01*
X151936485Y-72612969D02*
X151936485Y-73232016D01*
X152269819Y-74136778D02*
X152269819Y-73565350D01*
X152269819Y-73851064D02*
X151269819Y-73851064D01*
X151269819Y-73851064D02*
X151412676Y-73755826D01*
X151412676Y-73755826D02*
X151507914Y-73660588D01*
X151507914Y-73660588D02*
X151555533Y-73565350D01*
X148546009Y-61470112D02*
X148546009Y-61136779D01*
X149069819Y-61136779D02*
X148069819Y-61136779D01*
X148069819Y-61136779D02*
X148069819Y-61612969D01*
X149022200Y-61946303D02*
X149069819Y-62089160D01*
X149069819Y-62089160D02*
X149069819Y-62327255D01*
X149069819Y-62327255D02*
X149022200Y-62422493D01*
X149022200Y-62422493D02*
X148974580Y-62470112D01*
X148974580Y-62470112D02*
X148879342Y-62517731D01*
X148879342Y-62517731D02*
X148784104Y-62517731D01*
X148784104Y-62517731D02*
X148688866Y-62470112D01*
X148688866Y-62470112D02*
X148641247Y-62422493D01*
X148641247Y-62422493D02*
X148593628Y-62327255D01*
X148593628Y-62327255D02*
X148546009Y-62136779D01*
X148546009Y-62136779D02*
X148498390Y-62041541D01*
X148498390Y-62041541D02*
X148450771Y-61993922D01*
X148450771Y-61993922D02*
X148355533Y-61946303D01*
X148355533Y-61946303D02*
X148260295Y-61946303D01*
X148260295Y-61946303D02*
X148165057Y-61993922D01*
X148165057Y-61993922D02*
X148117438Y-62041541D01*
X148117438Y-62041541D02*
X148069819Y-62136779D01*
X148069819Y-62136779D02*
X148069819Y-62374874D01*
X148069819Y-62374874D02*
X148117438Y-62517731D01*
X148593628Y-63136779D02*
X149069819Y-63136779D01*
X148069819Y-62803446D02*
X148593628Y-63136779D01*
X148593628Y-63136779D02*
X148069819Y-63470112D01*
X149069819Y-63803446D02*
X148069819Y-63803446D01*
X148069819Y-63803446D02*
X149069819Y-64374874D01*
X149069819Y-64374874D02*
X148069819Y-64374874D01*
X148974580Y-65422493D02*
X149022200Y-65374874D01*
X149022200Y-65374874D02*
X149069819Y-65232017D01*
X149069819Y-65232017D02*
X149069819Y-65136779D01*
X149069819Y-65136779D02*
X149022200Y-64993922D01*
X149022200Y-64993922D02*
X148926961Y-64898684D01*
X148926961Y-64898684D02*
X148831723Y-64851065D01*
X148831723Y-64851065D02*
X148641247Y-64803446D01*
X148641247Y-64803446D02*
X148498390Y-64803446D01*
X148498390Y-64803446D02*
X148307914Y-64851065D01*
X148307914Y-64851065D02*
X148212676Y-64898684D01*
X148212676Y-64898684D02*
X148117438Y-64993922D01*
X148117438Y-64993922D02*
X148069819Y-65136779D01*
X148069819Y-65136779D02*
X148069819Y-65232017D01*
X148069819Y-65232017D02*
X148117438Y-65374874D01*
X148117438Y-65374874D02*
X148165057Y-65422493D01*
X149165057Y-65612970D02*
X149165057Y-66374874D01*
X148784104Y-66565351D02*
X148784104Y-67041541D01*
X149069819Y-66470113D02*
X148069819Y-66803446D01*
X148069819Y-66803446D02*
X149069819Y-67136779D01*
X149069819Y-67946303D02*
X149069819Y-67470113D01*
X149069819Y-67470113D02*
X148069819Y-67470113D01*
X148069819Y-68136780D02*
X148069819Y-68708208D01*
X149069819Y-68422494D02*
X148069819Y-68422494D01*
X148022200Y-69755827D02*
X149307914Y-68898685D01*
X148117438Y-70612970D02*
X148069819Y-70517732D01*
X148069819Y-70517732D02*
X148069819Y-70374875D01*
X148069819Y-70374875D02*
X148117438Y-70232018D01*
X148117438Y-70232018D02*
X148212676Y-70136780D01*
X148212676Y-70136780D02*
X148307914Y-70089161D01*
X148307914Y-70089161D02*
X148498390Y-70041542D01*
X148498390Y-70041542D02*
X148641247Y-70041542D01*
X148641247Y-70041542D02*
X148831723Y-70089161D01*
X148831723Y-70089161D02*
X148926961Y-70136780D01*
X148926961Y-70136780D02*
X149022200Y-70232018D01*
X149022200Y-70232018D02*
X149069819Y-70374875D01*
X149069819Y-70374875D02*
X149069819Y-70470113D01*
X149069819Y-70470113D02*
X149022200Y-70612970D01*
X149022200Y-70612970D02*
X148974580Y-70660589D01*
X148974580Y-70660589D02*
X148641247Y-70660589D01*
X148641247Y-70660589D02*
X148641247Y-70470113D01*
X149069819Y-71089161D02*
X148069819Y-71089161D01*
X148069819Y-71089161D02*
X148069819Y-71470113D01*
X148069819Y-71470113D02*
X148117438Y-71565351D01*
X148117438Y-71565351D02*
X148165057Y-71612970D01*
X148165057Y-71612970D02*
X148260295Y-71660589D01*
X148260295Y-71660589D02*
X148403152Y-71660589D01*
X148403152Y-71660589D02*
X148498390Y-71612970D01*
X148498390Y-71612970D02*
X148546009Y-71565351D01*
X148546009Y-71565351D02*
X148593628Y-71470113D01*
X148593628Y-71470113D02*
X148593628Y-71089161D01*
X149069819Y-72089161D02*
X148069819Y-72089161D01*
X148069819Y-72755827D02*
X148069819Y-72946303D01*
X148069819Y-72946303D02*
X148117438Y-73041541D01*
X148117438Y-73041541D02*
X148212676Y-73136779D01*
X148212676Y-73136779D02*
X148403152Y-73184398D01*
X148403152Y-73184398D02*
X148736485Y-73184398D01*
X148736485Y-73184398D02*
X148926961Y-73136779D01*
X148926961Y-73136779D02*
X149022200Y-73041541D01*
X149022200Y-73041541D02*
X149069819Y-72946303D01*
X149069819Y-72946303D02*
X149069819Y-72755827D01*
X149069819Y-72755827D02*
X149022200Y-72660589D01*
X149022200Y-72660589D02*
X148926961Y-72565351D01*
X148926961Y-72565351D02*
X148736485Y-72517732D01*
X148736485Y-72517732D02*
X148403152Y-72517732D01*
X148403152Y-72517732D02*
X148212676Y-72565351D01*
X148212676Y-72565351D02*
X148117438Y-72660589D01*
X148117438Y-72660589D02*
X148069819Y-72755827D01*
X148069819Y-73803446D02*
X148069819Y-73898684D01*
X148069819Y-73898684D02*
X148117438Y-73993922D01*
X148117438Y-73993922D02*
X148165057Y-74041541D01*
X148165057Y-74041541D02*
X148260295Y-74089160D01*
X148260295Y-74089160D02*
X148450771Y-74136779D01*
X148450771Y-74136779D02*
X148688866Y-74136779D01*
X148688866Y-74136779D02*
X148879342Y-74089160D01*
X148879342Y-74089160D02*
X148974580Y-74041541D01*
X148974580Y-74041541D02*
X149022200Y-73993922D01*
X149022200Y-73993922D02*
X149069819Y-73898684D01*
X149069819Y-73898684D02*
X149069819Y-73803446D01*
X149069819Y-73803446D02*
X149022200Y-73708208D01*
X149022200Y-73708208D02*
X148974580Y-73660589D01*
X148974580Y-73660589D02*
X148879342Y-73612970D01*
X148879342Y-73612970D02*
X148688866Y-73565351D01*
X148688866Y-73565351D02*
X148450771Y-73565351D01*
X148450771Y-73565351D02*
X148260295Y-73612970D01*
X148260295Y-73612970D02*
X148165057Y-73660589D01*
X148165057Y-73660589D02*
X148117438Y-73708208D01*
X148117438Y-73708208D02*
X148069819Y-73803446D01*
X132946009Y-98570112D02*
X132946009Y-98236779D01*
X133469819Y-98236779D02*
X132469819Y-98236779D01*
X132469819Y-98236779D02*
X132469819Y-98712969D01*
X133422200Y-99046303D02*
X133469819Y-99189160D01*
X133469819Y-99189160D02*
X133469819Y-99427255D01*
X133469819Y-99427255D02*
X133422200Y-99522493D01*
X133422200Y-99522493D02*
X133374580Y-99570112D01*
X133374580Y-99570112D02*
X133279342Y-99617731D01*
X133279342Y-99617731D02*
X133184104Y-99617731D01*
X133184104Y-99617731D02*
X133088866Y-99570112D01*
X133088866Y-99570112D02*
X133041247Y-99522493D01*
X133041247Y-99522493D02*
X132993628Y-99427255D01*
X132993628Y-99427255D02*
X132946009Y-99236779D01*
X132946009Y-99236779D02*
X132898390Y-99141541D01*
X132898390Y-99141541D02*
X132850771Y-99093922D01*
X132850771Y-99093922D02*
X132755533Y-99046303D01*
X132755533Y-99046303D02*
X132660295Y-99046303D01*
X132660295Y-99046303D02*
X132565057Y-99093922D01*
X132565057Y-99093922D02*
X132517438Y-99141541D01*
X132517438Y-99141541D02*
X132469819Y-99236779D01*
X132469819Y-99236779D02*
X132469819Y-99474874D01*
X132469819Y-99474874D02*
X132517438Y-99617731D01*
X132993628Y-100236779D02*
X133469819Y-100236779D01*
X132469819Y-99903446D02*
X132993628Y-100236779D01*
X132993628Y-100236779D02*
X132469819Y-100570112D01*
X133469819Y-100903446D02*
X132469819Y-100903446D01*
X132469819Y-100903446D02*
X133469819Y-101474874D01*
X133469819Y-101474874D02*
X132469819Y-101474874D01*
X133374580Y-102522493D02*
X133422200Y-102474874D01*
X133422200Y-102474874D02*
X133469819Y-102332017D01*
X133469819Y-102332017D02*
X133469819Y-102236779D01*
X133469819Y-102236779D02*
X133422200Y-102093922D01*
X133422200Y-102093922D02*
X133326961Y-101998684D01*
X133326961Y-101998684D02*
X133231723Y-101951065D01*
X133231723Y-101951065D02*
X133041247Y-101903446D01*
X133041247Y-101903446D02*
X132898390Y-101903446D01*
X132898390Y-101903446D02*
X132707914Y-101951065D01*
X132707914Y-101951065D02*
X132612676Y-101998684D01*
X132612676Y-101998684D02*
X132517438Y-102093922D01*
X132517438Y-102093922D02*
X132469819Y-102236779D01*
X132469819Y-102236779D02*
X132469819Y-102332017D01*
X132469819Y-102332017D02*
X132517438Y-102474874D01*
X132517438Y-102474874D02*
X132565057Y-102522493D01*
X133565057Y-102712970D02*
X133565057Y-103474874D01*
X133184104Y-103665351D02*
X133184104Y-104141541D01*
X133469819Y-103570113D02*
X132469819Y-103903446D01*
X132469819Y-103903446D02*
X133469819Y-104236779D01*
X133469819Y-105046303D02*
X133469819Y-104570113D01*
X133469819Y-104570113D02*
X132469819Y-104570113D01*
X132469819Y-105236780D02*
X132469819Y-105808208D01*
X133469819Y-105522494D02*
X132469819Y-105522494D01*
X132422200Y-106855827D02*
X133707914Y-105998685D01*
X132517438Y-107712970D02*
X132469819Y-107617732D01*
X132469819Y-107617732D02*
X132469819Y-107474875D01*
X132469819Y-107474875D02*
X132517438Y-107332018D01*
X132517438Y-107332018D02*
X132612676Y-107236780D01*
X132612676Y-107236780D02*
X132707914Y-107189161D01*
X132707914Y-107189161D02*
X132898390Y-107141542D01*
X132898390Y-107141542D02*
X133041247Y-107141542D01*
X133041247Y-107141542D02*
X133231723Y-107189161D01*
X133231723Y-107189161D02*
X133326961Y-107236780D01*
X133326961Y-107236780D02*
X133422200Y-107332018D01*
X133422200Y-107332018D02*
X133469819Y-107474875D01*
X133469819Y-107474875D02*
X133469819Y-107570113D01*
X133469819Y-107570113D02*
X133422200Y-107712970D01*
X133422200Y-107712970D02*
X133374580Y-107760589D01*
X133374580Y-107760589D02*
X133041247Y-107760589D01*
X133041247Y-107760589D02*
X133041247Y-107570113D01*
X133469819Y-108189161D02*
X132469819Y-108189161D01*
X132469819Y-108189161D02*
X132469819Y-108570113D01*
X132469819Y-108570113D02*
X132517438Y-108665351D01*
X132517438Y-108665351D02*
X132565057Y-108712970D01*
X132565057Y-108712970D02*
X132660295Y-108760589D01*
X132660295Y-108760589D02*
X132803152Y-108760589D01*
X132803152Y-108760589D02*
X132898390Y-108712970D01*
X132898390Y-108712970D02*
X132946009Y-108665351D01*
X132946009Y-108665351D02*
X132993628Y-108570113D01*
X132993628Y-108570113D02*
X132993628Y-108189161D01*
X133469819Y-109189161D02*
X132469819Y-109189161D01*
X132469819Y-109855827D02*
X132469819Y-110046303D01*
X132469819Y-110046303D02*
X132517438Y-110141541D01*
X132517438Y-110141541D02*
X132612676Y-110236779D01*
X132612676Y-110236779D02*
X132803152Y-110284398D01*
X132803152Y-110284398D02*
X133136485Y-110284398D01*
X133136485Y-110284398D02*
X133326961Y-110236779D01*
X133326961Y-110236779D02*
X133422200Y-110141541D01*
X133422200Y-110141541D02*
X133469819Y-110046303D01*
X133469819Y-110046303D02*
X133469819Y-109855827D01*
X133469819Y-109855827D02*
X133422200Y-109760589D01*
X133422200Y-109760589D02*
X133326961Y-109665351D01*
X133326961Y-109665351D02*
X133136485Y-109617732D01*
X133136485Y-109617732D02*
X132803152Y-109617732D01*
X132803152Y-109617732D02*
X132612676Y-109665351D01*
X132612676Y-109665351D02*
X132517438Y-109760589D01*
X132517438Y-109760589D02*
X132469819Y-109855827D01*
X132469819Y-110903446D02*
X132469819Y-110998684D01*
X132469819Y-110998684D02*
X132517438Y-111093922D01*
X132517438Y-111093922D02*
X132565057Y-111141541D01*
X132565057Y-111141541D02*
X132660295Y-111189160D01*
X132660295Y-111189160D02*
X132850771Y-111236779D01*
X132850771Y-111236779D02*
X133088866Y-111236779D01*
X133088866Y-111236779D02*
X133279342Y-111189160D01*
X133279342Y-111189160D02*
X133374580Y-111141541D01*
X133374580Y-111141541D02*
X133422200Y-111093922D01*
X133422200Y-111093922D02*
X133469819Y-110998684D01*
X133469819Y-110998684D02*
X133469819Y-110903446D01*
X133469819Y-110903446D02*
X133422200Y-110808208D01*
X133422200Y-110808208D02*
X133374580Y-110760589D01*
X133374580Y-110760589D02*
X133279342Y-110712970D01*
X133279342Y-110712970D02*
X133088866Y-110665351D01*
X133088866Y-110665351D02*
X132850771Y-110665351D01*
X132850771Y-110665351D02*
X132660295Y-110712970D01*
X132660295Y-110712970D02*
X132565057Y-110760589D01*
X132565057Y-110760589D02*
X132517438Y-110808208D01*
X132517438Y-110808208D02*
X132469819Y-110903446D01*
D13*
X110996928Y-57803852D02*
X109996928Y-57803852D01*
X110282642Y-57803852D02*
X110139785Y-57875281D01*
X110139785Y-57875281D02*
X110068357Y-57946710D01*
X110068357Y-57946710D02*
X109996928Y-58089567D01*
X109996928Y-58089567D02*
X109996928Y-58232424D01*
X110925500Y-59303852D02*
X110996928Y-59160995D01*
X110996928Y-59160995D02*
X110996928Y-58875281D01*
X110996928Y-58875281D02*
X110925500Y-58732423D01*
X110925500Y-58732423D02*
X110782642Y-58660995D01*
X110782642Y-58660995D02*
X110211214Y-58660995D01*
X110211214Y-58660995D02*
X110068357Y-58732423D01*
X110068357Y-58732423D02*
X109996928Y-58875281D01*
X109996928Y-58875281D02*
X109996928Y-59160995D01*
X109996928Y-59160995D02*
X110068357Y-59303852D01*
X110068357Y-59303852D02*
X110211214Y-59375281D01*
X110211214Y-59375281D02*
X110354071Y-59375281D01*
X110354071Y-59375281D02*
X110496928Y-58660995D01*
X109996928Y-59875280D02*
X110996928Y-60232423D01*
X110996928Y-60232423D02*
X109996928Y-60589566D01*
X110568357Y-62232423D02*
X110568357Y-62946709D01*
X110996928Y-62089566D02*
X109496928Y-62589566D01*
X109496928Y-62589566D02*
X110996928Y-63089566D01*
D11*
X131096009Y-63420112D02*
X131096009Y-63086779D01*
X131619819Y-63086779D02*
X130619819Y-63086779D01*
X130619819Y-63086779D02*
X130619819Y-63562969D01*
X131572200Y-63896303D02*
X131619819Y-64039160D01*
X131619819Y-64039160D02*
X131619819Y-64277255D01*
X131619819Y-64277255D02*
X131572200Y-64372493D01*
X131572200Y-64372493D02*
X131524580Y-64420112D01*
X131524580Y-64420112D02*
X131429342Y-64467731D01*
X131429342Y-64467731D02*
X131334104Y-64467731D01*
X131334104Y-64467731D02*
X131238866Y-64420112D01*
X131238866Y-64420112D02*
X131191247Y-64372493D01*
X131191247Y-64372493D02*
X131143628Y-64277255D01*
X131143628Y-64277255D02*
X131096009Y-64086779D01*
X131096009Y-64086779D02*
X131048390Y-63991541D01*
X131048390Y-63991541D02*
X131000771Y-63943922D01*
X131000771Y-63943922D02*
X130905533Y-63896303D01*
X130905533Y-63896303D02*
X130810295Y-63896303D01*
X130810295Y-63896303D02*
X130715057Y-63943922D01*
X130715057Y-63943922D02*
X130667438Y-63991541D01*
X130667438Y-63991541D02*
X130619819Y-64086779D01*
X130619819Y-64086779D02*
X130619819Y-64324874D01*
X130619819Y-64324874D02*
X130667438Y-64467731D01*
X131143628Y-65086779D02*
X131619819Y-65086779D01*
X130619819Y-64753446D02*
X131143628Y-65086779D01*
X131143628Y-65086779D02*
X130619819Y-65420112D01*
X131619819Y-65753446D02*
X130619819Y-65753446D01*
X130619819Y-65753446D02*
X131619819Y-66324874D01*
X131619819Y-66324874D02*
X130619819Y-66324874D01*
X131524580Y-67372493D02*
X131572200Y-67324874D01*
X131572200Y-67324874D02*
X131619819Y-67182017D01*
X131619819Y-67182017D02*
X131619819Y-67086779D01*
X131619819Y-67086779D02*
X131572200Y-66943922D01*
X131572200Y-66943922D02*
X131476961Y-66848684D01*
X131476961Y-66848684D02*
X131381723Y-66801065D01*
X131381723Y-66801065D02*
X131191247Y-66753446D01*
X131191247Y-66753446D02*
X131048390Y-66753446D01*
X131048390Y-66753446D02*
X130857914Y-66801065D01*
X130857914Y-66801065D02*
X130762676Y-66848684D01*
X130762676Y-66848684D02*
X130667438Y-66943922D01*
X130667438Y-66943922D02*
X130619819Y-67086779D01*
X130619819Y-67086779D02*
X130619819Y-67182017D01*
X130619819Y-67182017D02*
X130667438Y-67324874D01*
X130667438Y-67324874D02*
X130715057Y-67372493D01*
X130572200Y-68515350D02*
X131857914Y-67658208D01*
X130667438Y-69372493D02*
X130619819Y-69277255D01*
X130619819Y-69277255D02*
X130619819Y-69134398D01*
X130619819Y-69134398D02*
X130667438Y-68991541D01*
X130667438Y-68991541D02*
X130762676Y-68896303D01*
X130762676Y-68896303D02*
X130857914Y-68848684D01*
X130857914Y-68848684D02*
X131048390Y-68801065D01*
X131048390Y-68801065D02*
X131191247Y-68801065D01*
X131191247Y-68801065D02*
X131381723Y-68848684D01*
X131381723Y-68848684D02*
X131476961Y-68896303D01*
X131476961Y-68896303D02*
X131572200Y-68991541D01*
X131572200Y-68991541D02*
X131619819Y-69134398D01*
X131619819Y-69134398D02*
X131619819Y-69229636D01*
X131619819Y-69229636D02*
X131572200Y-69372493D01*
X131572200Y-69372493D02*
X131524580Y-69420112D01*
X131524580Y-69420112D02*
X131191247Y-69420112D01*
X131191247Y-69420112D02*
X131191247Y-69229636D01*
X131619819Y-69848684D02*
X130619819Y-69848684D01*
X130619819Y-69848684D02*
X130619819Y-70229636D01*
X130619819Y-70229636D02*
X130667438Y-70324874D01*
X130667438Y-70324874D02*
X130715057Y-70372493D01*
X130715057Y-70372493D02*
X130810295Y-70420112D01*
X130810295Y-70420112D02*
X130953152Y-70420112D01*
X130953152Y-70420112D02*
X131048390Y-70372493D01*
X131048390Y-70372493D02*
X131096009Y-70324874D01*
X131096009Y-70324874D02*
X131143628Y-70229636D01*
X131143628Y-70229636D02*
X131143628Y-69848684D01*
X131619819Y-70848684D02*
X130619819Y-70848684D01*
X130619819Y-71515350D02*
X130619819Y-71705826D01*
X130619819Y-71705826D02*
X130667438Y-71801064D01*
X130667438Y-71801064D02*
X130762676Y-71896302D01*
X130762676Y-71896302D02*
X130953152Y-71943921D01*
X130953152Y-71943921D02*
X131286485Y-71943921D01*
X131286485Y-71943921D02*
X131476961Y-71896302D01*
X131476961Y-71896302D02*
X131572200Y-71801064D01*
X131572200Y-71801064D02*
X131619819Y-71705826D01*
X131619819Y-71705826D02*
X131619819Y-71515350D01*
X131619819Y-71515350D02*
X131572200Y-71420112D01*
X131572200Y-71420112D02*
X131476961Y-71324874D01*
X131476961Y-71324874D02*
X131286485Y-71277255D01*
X131286485Y-71277255D02*
X130953152Y-71277255D01*
X130953152Y-71277255D02*
X130762676Y-71324874D01*
X130762676Y-71324874D02*
X130667438Y-71420112D01*
X130667438Y-71420112D02*
X130619819Y-71515350D01*
X131619819Y-72896302D02*
X131619819Y-72324874D01*
X131619819Y-72610588D02*
X130619819Y-72610588D01*
X130619819Y-72610588D02*
X130762676Y-72515350D01*
X130762676Y-72515350D02*
X130857914Y-72420112D01*
X130857914Y-72420112D02*
X130905533Y-72324874D01*
X130715057Y-73277255D02*
X130667438Y-73324874D01*
X130667438Y-73324874D02*
X130619819Y-73420112D01*
X130619819Y-73420112D02*
X130619819Y-73658207D01*
X130619819Y-73658207D02*
X130667438Y-73753445D01*
X130667438Y-73753445D02*
X130715057Y-73801064D01*
X130715057Y-73801064D02*
X130810295Y-73848683D01*
X130810295Y-73848683D02*
X130905533Y-73848683D01*
X130905533Y-73848683D02*
X131048390Y-73801064D01*
X131048390Y-73801064D02*
X131619819Y-73229636D01*
X131619819Y-73229636D02*
X131619819Y-73848683D01*
X147954819Y-78166666D02*
X148669104Y-78166666D01*
X148669104Y-78166666D02*
X148811961Y-78119047D01*
X148811961Y-78119047D02*
X148907200Y-78023809D01*
X148907200Y-78023809D02*
X148954819Y-77880952D01*
X148954819Y-77880952D02*
X148954819Y-77785714D01*
X148954819Y-78642857D02*
X147954819Y-78642857D01*
X147954819Y-78642857D02*
X147954819Y-79023809D01*
X147954819Y-79023809D02*
X148002438Y-79119047D01*
X148002438Y-79119047D02*
X148050057Y-79166666D01*
X148050057Y-79166666D02*
X148145295Y-79214285D01*
X148145295Y-79214285D02*
X148288152Y-79214285D01*
X148288152Y-79214285D02*
X148383390Y-79166666D01*
X148383390Y-79166666D02*
X148431009Y-79119047D01*
X148431009Y-79119047D02*
X148478628Y-79023809D01*
X148478628Y-79023809D02*
X148478628Y-78642857D01*
X147954819Y-80119047D02*
X147954819Y-79642857D01*
X147954819Y-79642857D02*
X148431009Y-79595238D01*
X148431009Y-79595238D02*
X148383390Y-79642857D01*
X148383390Y-79642857D02*
X148335771Y-79738095D01*
X148335771Y-79738095D02*
X148335771Y-79976190D01*
X148335771Y-79976190D02*
X148383390Y-80071428D01*
X148383390Y-80071428D02*
X148431009Y-80119047D01*
X148431009Y-80119047D02*
X148526247Y-80166666D01*
X148526247Y-80166666D02*
X148764342Y-80166666D01*
X148764342Y-80166666D02*
X148859580Y-80119047D01*
X148859580Y-80119047D02*
X148907200Y-80071428D01*
X148907200Y-80071428D02*
X148954819Y-79976190D01*
X148954819Y-79976190D02*
X148954819Y-79738095D01*
X148954819Y-79738095D02*
X148907200Y-79642857D01*
X148907200Y-79642857D02*
X148859580Y-79595238D01*
X130454819Y-78166666D02*
X131169104Y-78166666D01*
X131169104Y-78166666D02*
X131311961Y-78119047D01*
X131311961Y-78119047D02*
X131407200Y-78023809D01*
X131407200Y-78023809D02*
X131454819Y-77880952D01*
X131454819Y-77880952D02*
X131454819Y-77785714D01*
X131454819Y-78642857D02*
X130454819Y-78642857D01*
X130454819Y-78642857D02*
X130454819Y-79023809D01*
X130454819Y-79023809D02*
X130502438Y-79119047D01*
X130502438Y-79119047D02*
X130550057Y-79166666D01*
X130550057Y-79166666D02*
X130645295Y-79214285D01*
X130645295Y-79214285D02*
X130788152Y-79214285D01*
X130788152Y-79214285D02*
X130883390Y-79166666D01*
X130883390Y-79166666D02*
X130931009Y-79119047D01*
X130931009Y-79119047D02*
X130978628Y-79023809D01*
X130978628Y-79023809D02*
X130978628Y-78642857D01*
X130454819Y-79547619D02*
X130454819Y-80214285D01*
X130454819Y-80214285D02*
X131454819Y-79785714D01*
X151454819Y-78166666D02*
X152169104Y-78166666D01*
X152169104Y-78166666D02*
X152311961Y-78119047D01*
X152311961Y-78119047D02*
X152407200Y-78023809D01*
X152407200Y-78023809D02*
X152454819Y-77880952D01*
X152454819Y-77880952D02*
X152454819Y-77785714D01*
X152454819Y-78642857D02*
X151454819Y-78642857D01*
X151454819Y-78642857D02*
X151454819Y-79023809D01*
X151454819Y-79023809D02*
X151502438Y-79119047D01*
X151502438Y-79119047D02*
X151550057Y-79166666D01*
X151550057Y-79166666D02*
X151645295Y-79214285D01*
X151645295Y-79214285D02*
X151788152Y-79214285D01*
X151788152Y-79214285D02*
X151883390Y-79166666D01*
X151883390Y-79166666D02*
X151931009Y-79119047D01*
X151931009Y-79119047D02*
X151978628Y-79023809D01*
X151978628Y-79023809D02*
X151978628Y-78642857D01*
X151788152Y-80071428D02*
X152454819Y-80071428D01*
X151407200Y-79833333D02*
X152121485Y-79595238D01*
X152121485Y-79595238D02*
X152121485Y-80214285D01*
X128454819Y-115366666D02*
X129169104Y-115366666D01*
X129169104Y-115366666D02*
X129311961Y-115319047D01*
X129311961Y-115319047D02*
X129407200Y-115223809D01*
X129407200Y-115223809D02*
X129454819Y-115080952D01*
X129454819Y-115080952D02*
X129454819Y-114985714D01*
X129454819Y-115842857D02*
X128454819Y-115842857D01*
X128454819Y-115842857D02*
X128454819Y-116223809D01*
X128454819Y-116223809D02*
X128502438Y-116319047D01*
X128502438Y-116319047D02*
X128550057Y-116366666D01*
X128550057Y-116366666D02*
X128645295Y-116414285D01*
X128645295Y-116414285D02*
X128788152Y-116414285D01*
X128788152Y-116414285D02*
X128883390Y-116366666D01*
X128883390Y-116366666D02*
X128931009Y-116319047D01*
X128931009Y-116319047D02*
X128978628Y-116223809D01*
X128978628Y-116223809D02*
X128978628Y-115842857D01*
X129454819Y-117366666D02*
X129454819Y-116795238D01*
X129454819Y-117080952D02*
X128454819Y-117080952D01*
X128454819Y-117080952D02*
X128597676Y-116985714D01*
X128597676Y-116985714D02*
X128692914Y-116890476D01*
X128692914Y-116890476D02*
X128740533Y-116795238D01*
X133954819Y-78166666D02*
X134669104Y-78166666D01*
X134669104Y-78166666D02*
X134811961Y-78119047D01*
X134811961Y-78119047D02*
X134907200Y-78023809D01*
X134907200Y-78023809D02*
X134954819Y-77880952D01*
X134954819Y-77880952D02*
X134954819Y-77785714D01*
X134954819Y-78642857D02*
X133954819Y-78642857D01*
X133954819Y-78642857D02*
X133954819Y-79023809D01*
X133954819Y-79023809D02*
X134002438Y-79119047D01*
X134002438Y-79119047D02*
X134050057Y-79166666D01*
X134050057Y-79166666D02*
X134145295Y-79214285D01*
X134145295Y-79214285D02*
X134288152Y-79214285D01*
X134288152Y-79214285D02*
X134383390Y-79166666D01*
X134383390Y-79166666D02*
X134431009Y-79119047D01*
X134431009Y-79119047D02*
X134478628Y-79023809D01*
X134478628Y-79023809D02*
X134478628Y-78642857D01*
X133954819Y-80071428D02*
X133954819Y-79880952D01*
X133954819Y-79880952D02*
X134002438Y-79785714D01*
X134002438Y-79785714D02*
X134050057Y-79738095D01*
X134050057Y-79738095D02*
X134192914Y-79642857D01*
X134192914Y-79642857D02*
X134383390Y-79595238D01*
X134383390Y-79595238D02*
X134764342Y-79595238D01*
X134764342Y-79595238D02*
X134859580Y-79642857D01*
X134859580Y-79642857D02*
X134907200Y-79690476D01*
X134907200Y-79690476D02*
X134954819Y-79785714D01*
X134954819Y-79785714D02*
X134954819Y-79976190D01*
X134954819Y-79976190D02*
X134907200Y-80071428D01*
X134907200Y-80071428D02*
X134859580Y-80119047D01*
X134859580Y-80119047D02*
X134764342Y-80166666D01*
X134764342Y-80166666D02*
X134526247Y-80166666D01*
X134526247Y-80166666D02*
X134431009Y-80119047D01*
X134431009Y-80119047D02*
X134383390Y-80071428D01*
X134383390Y-80071428D02*
X134335771Y-79976190D01*
X134335771Y-79976190D02*
X134335771Y-79785714D01*
X134335771Y-79785714D02*
X134383390Y-79690476D01*
X134383390Y-79690476D02*
X134431009Y-79642857D01*
X134431009Y-79642857D02*
X134526247Y-79595238D01*
X132804819Y-115366666D02*
X133519104Y-115366666D01*
X133519104Y-115366666D02*
X133661961Y-115319047D01*
X133661961Y-115319047D02*
X133757200Y-115223809D01*
X133757200Y-115223809D02*
X133804819Y-115080952D01*
X133804819Y-115080952D02*
X133804819Y-114985714D01*
X133804819Y-115842857D02*
X132804819Y-115842857D01*
X132804819Y-115842857D02*
X132804819Y-116223809D01*
X132804819Y-116223809D02*
X132852438Y-116319047D01*
X132852438Y-116319047D02*
X132900057Y-116366666D01*
X132900057Y-116366666D02*
X132995295Y-116414285D01*
X132995295Y-116414285D02*
X133138152Y-116414285D01*
X133138152Y-116414285D02*
X133233390Y-116366666D01*
X133233390Y-116366666D02*
X133281009Y-116319047D01*
X133281009Y-116319047D02*
X133328628Y-116223809D01*
X133328628Y-116223809D02*
X133328628Y-115842857D01*
X132900057Y-116795238D02*
X132852438Y-116842857D01*
X132852438Y-116842857D02*
X132804819Y-116938095D01*
X132804819Y-116938095D02*
X132804819Y-117176190D01*
X132804819Y-117176190D02*
X132852438Y-117271428D01*
X132852438Y-117271428D02*
X132900057Y-117319047D01*
X132900057Y-117319047D02*
X132995295Y-117366666D01*
X132995295Y-117366666D02*
X133090533Y-117366666D01*
X133090533Y-117366666D02*
X133233390Y-117319047D01*
X133233390Y-117319047D02*
X133804819Y-116747619D01*
X133804819Y-116747619D02*
X133804819Y-117366666D01*
D14*
%TO.C,J12*%
X177709649Y-45540000D02*
G75*
G02*
X176947649Y-45540000I-381000J0D01*
G01*
X176947649Y-45540000D02*
G75*
G02*
X177709649Y-45540000I381000J0D01*
G01*
D15*
%TO.C,JP5*%
X147500000Y-76700000D02*
X147500000Y-75300000D01*
X148200000Y-74600000D02*
X148800000Y-74600000D01*
X148800000Y-77400000D02*
X148200000Y-77400000D01*
X149500000Y-75300000D02*
X149500000Y-76700000D01*
X147500000Y-75300000D02*
G75*
G02*
X148200000Y-74600000I699999J1D01*
G01*
X148200000Y-77400000D02*
G75*
G02*
X147500000Y-76700000I0J700000D01*
G01*
X148800000Y-74600000D02*
G75*
G02*
X149500000Y-75300000I1J-699999D01*
G01*
X149500000Y-76700000D02*
G75*
G02*
X148800000Y-77400000I-700000J0D01*
G01*
%TO.C,JP7*%
X130000000Y-76700000D02*
X130000000Y-75300000D01*
X130700000Y-74600000D02*
X131300000Y-74600000D01*
X131300000Y-77400000D02*
X130700000Y-77400000D01*
X132000000Y-75300000D02*
X132000000Y-76700000D01*
X130000000Y-75300000D02*
G75*
G02*
X130700000Y-74600000I699999J1D01*
G01*
X130700000Y-77400000D02*
G75*
G02*
X130000000Y-76700000I0J700000D01*
G01*
X131300000Y-74600000D02*
G75*
G02*
X132000000Y-75300000I1J-699999D01*
G01*
X132000000Y-76700000D02*
G75*
G02*
X131300000Y-77400000I-700000J0D01*
G01*
D16*
%TO.C,REF\u002A\u002A*%
G36*
X121240859Y-44131545D02*
G01*
X121295398Y-44191408D01*
X121303831Y-44202520D01*
X121350093Y-44323186D01*
X121346908Y-44463528D01*
X121301455Y-44600684D01*
X121220912Y-44711791D01*
X121112458Y-44773989D01*
X121102001Y-44776346D01*
X121009866Y-44767392D01*
X120949649Y-44707417D01*
X120921154Y-44611410D01*
X120924184Y-44494362D01*
X120958540Y-44371264D01*
X121024027Y-44257105D01*
X121120446Y-44166876D01*
X121125895Y-44163309D01*
X121195912Y-44123799D01*
X121240859Y-44131545D01*
G37*
G36*
X121240859Y-46223310D02*
G01*
X121295398Y-46283172D01*
X121303831Y-46294284D01*
X121350093Y-46414951D01*
X121346908Y-46555293D01*
X121301455Y-46692449D01*
X121220912Y-46803556D01*
X121112458Y-46865754D01*
X121102001Y-46868111D01*
X121009866Y-46859157D01*
X120949649Y-46799182D01*
X120921154Y-46703175D01*
X120924184Y-46586127D01*
X120958540Y-46463028D01*
X121024027Y-46348869D01*
X121120446Y-46258640D01*
X121125895Y-46255074D01*
X121195912Y-46215563D01*
X121240859Y-46223310D01*
G37*
G36*
X124798571Y-36605038D02*
G01*
X125266073Y-36606522D01*
X125720730Y-36609091D01*
X126155668Y-36612742D01*
X126564015Y-36617479D01*
X126938900Y-36623300D01*
X127273448Y-36630205D01*
X127560788Y-36638194D01*
X127794048Y-36647267D01*
X127966354Y-36657424D01*
X128070835Y-36668666D01*
X128625785Y-36795870D01*
X129158127Y-36987310D01*
X129653651Y-37242250D01*
X130117236Y-37563212D01*
X130553761Y-37952719D01*
X130892047Y-38326493D01*
X131228268Y-38796045D01*
X131497238Y-39297859D01*
X131699542Y-39833051D01*
X131835764Y-40402738D01*
X131842868Y-40449980D01*
X131851466Y-40531941D01*
X131859013Y-40639057D01*
X131865577Y-40775833D01*
X131871226Y-40946774D01*
X131876030Y-41156383D01*
X131880055Y-41409166D01*
X131883372Y-41709626D01*
X131886048Y-42062270D01*
X131888152Y-42471600D01*
X131889752Y-42942122D01*
X131890916Y-43478340D01*
X131891714Y-44084759D01*
X131891857Y-44230181D01*
X131892351Y-44823989D01*
X131892436Y-45349371D01*
X131891852Y-45811444D01*
X131890343Y-46215323D01*
X131887649Y-46566123D01*
X131883512Y-46868960D01*
X131877675Y-47128948D01*
X131869878Y-47351203D01*
X131859864Y-47540841D01*
X131847375Y-47702977D01*
X131832152Y-47842726D01*
X131813937Y-47965203D01*
X131792471Y-48075523D01*
X131767498Y-48178803D01*
X131738757Y-48280157D01*
X131705991Y-48384701D01*
X131668943Y-48497550D01*
X131501920Y-48930140D01*
X131249852Y-49410985D01*
X130935688Y-49859906D01*
X130553761Y-50285992D01*
X130160064Y-50640553D01*
X129690060Y-50973410D01*
X129188668Y-51238611D01*
X128654913Y-51436661D01*
X128087822Y-51568068D01*
X128028442Y-51575475D01*
X127876250Y-51586514D01*
X127660551Y-51596414D01*
X127388254Y-51605174D01*
X127066271Y-51612796D01*
X126701510Y-51619278D01*
X126300882Y-51624621D01*
X125871298Y-51628825D01*
X125419668Y-51631890D01*
X124952902Y-51633815D01*
X124477909Y-51634602D01*
X124001602Y-51634249D01*
X123530889Y-51632757D01*
X123072681Y-51630126D01*
X122633889Y-51626356D01*
X122221421Y-51621446D01*
X121842190Y-51615398D01*
X121503105Y-51608210D01*
X121211075Y-51599883D01*
X120973013Y-51590417D01*
X120795827Y-51579812D01*
X120686427Y-51568068D01*
X120178767Y-51454000D01*
X119641470Y-51263148D01*
X119136641Y-51005201D01*
X118663305Y-50679651D01*
X118220488Y-50285992D01*
X117842384Y-49863847D01*
X117519265Y-49401205D01*
X117262249Y-48906780D01*
X117068814Y-48375693D01*
X116936435Y-47803066D01*
X116928030Y-47732749D01*
X116917589Y-47577523D01*
X116908232Y-47359546D01*
X116899959Y-47085690D01*
X116892770Y-46762828D01*
X116886666Y-46397833D01*
X116881646Y-45997576D01*
X116877710Y-45568930D01*
X116874858Y-45118769D01*
X116873090Y-44653963D01*
X116872473Y-44227998D01*
X117042097Y-44227998D01*
X117042752Y-44696700D01*
X117044303Y-45157215D01*
X117046749Y-45602892D01*
X117050091Y-46027079D01*
X117054329Y-46423126D01*
X117059463Y-46784381D01*
X117065493Y-47104192D01*
X117072419Y-47375908D01*
X117080240Y-47592878D01*
X117088957Y-47748450D01*
X117098571Y-47835973D01*
X117166598Y-48133022D01*
X117347230Y-48681873D01*
X117589270Y-49193702D01*
X117888793Y-49664584D01*
X118241876Y-50090597D01*
X118644595Y-50467816D01*
X119093025Y-50792319D01*
X119583243Y-51060182D01*
X120111324Y-51267481D01*
X120673345Y-51410292D01*
X120707110Y-51414876D01*
X120827959Y-51423521D01*
X121013585Y-51431323D01*
X121257347Y-51438282D01*
X121552601Y-51444398D01*
X121892708Y-51449671D01*
X122271025Y-51454100D01*
X122680909Y-51457686D01*
X123115720Y-51460429D01*
X123568815Y-51462329D01*
X124033553Y-51463386D01*
X124503291Y-51463599D01*
X124971389Y-51462969D01*
X125431204Y-51461496D01*
X125876093Y-51459179D01*
X126299417Y-51456020D01*
X126694532Y-51452017D01*
X127054797Y-51447171D01*
X127373570Y-51441481D01*
X127644209Y-51434949D01*
X127860072Y-51427573D01*
X128014518Y-51419354D01*
X128100905Y-51410292D01*
X128581285Y-51291993D01*
X129112777Y-51093272D01*
X129612570Y-50831876D01*
X130072711Y-50512051D01*
X130485248Y-50138040D01*
X130748191Y-49844026D01*
X131052013Y-49427823D01*
X131301084Y-48980657D01*
X131501532Y-48491098D01*
X131659484Y-47947713D01*
X131667022Y-47914040D01*
X131677037Y-47857828D01*
X131685835Y-47789450D01*
X131693509Y-47704093D01*
X131700153Y-47596947D01*
X131705857Y-47463202D01*
X131710716Y-47298047D01*
X131714820Y-47096672D01*
X131718264Y-46854265D01*
X131721139Y-46566016D01*
X131723537Y-46227114D01*
X131725552Y-45832749D01*
X131727276Y-45378110D01*
X131728801Y-44858386D01*
X131730219Y-44268767D01*
X131730969Y-43773079D01*
X131730994Y-43280533D01*
X131730300Y-42811539D01*
X131728930Y-42371781D01*
X131726924Y-41966942D01*
X131724322Y-41602706D01*
X131721165Y-41284757D01*
X131717495Y-41018779D01*
X131713352Y-40810455D01*
X131708777Y-40665468D01*
X131703810Y-40589503D01*
X131697385Y-40542195D01*
X131583703Y-39996883D01*
X131403214Y-39477542D01*
X131160474Y-38988928D01*
X130860038Y-38535797D01*
X130506462Y-38122902D01*
X130104300Y-37755000D01*
X129658108Y-37436845D01*
X129172442Y-37173193D01*
X128651855Y-36968799D01*
X128100905Y-36828419D01*
X128066979Y-36823765D01*
X127945268Y-36814895D01*
X127758884Y-36806914D01*
X127514462Y-36799820D01*
X127218640Y-36793612D01*
X126878055Y-36788287D01*
X126499344Y-36783842D01*
X126089143Y-36780277D01*
X125654090Y-36777588D01*
X125200822Y-36775773D01*
X124735975Y-36774831D01*
X124266186Y-36774760D01*
X123798092Y-36775556D01*
X123338330Y-36777219D01*
X122893537Y-36779745D01*
X122470351Y-36783133D01*
X122075406Y-36787381D01*
X121715342Y-36792486D01*
X121396794Y-36798447D01*
X121126400Y-36805261D01*
X120910796Y-36812926D01*
X120756619Y-36821441D01*
X120670507Y-36830802D01*
X120413696Y-36888322D01*
X119858499Y-37065029D01*
X119341707Y-37303489D01*
X118866879Y-37600143D01*
X118437577Y-37951430D01*
X118057362Y-38353789D01*
X117729793Y-38803659D01*
X117458431Y-39297482D01*
X117246837Y-39831695D01*
X117098571Y-40402738D01*
X117094022Y-40434261D01*
X117084822Y-40554024D01*
X117076518Y-40738765D01*
X117069110Y-40981834D01*
X117062598Y-41276578D01*
X117056982Y-41616347D01*
X117052262Y-41994489D01*
X117048437Y-42404353D01*
X117045508Y-42839287D01*
X117043476Y-43292640D01*
X117042339Y-43757761D01*
X117042097Y-44227998D01*
X116872473Y-44227998D01*
X116872406Y-44181386D01*
X116872807Y-43707910D01*
X116874291Y-43240407D01*
X116876860Y-42785751D01*
X116880511Y-42350812D01*
X116885248Y-41942465D01*
X116891069Y-41567581D01*
X116897974Y-41233032D01*
X116905963Y-40945692D01*
X116915036Y-40712433D01*
X116925193Y-40540126D01*
X116936435Y-40435646D01*
X117063639Y-39880695D01*
X117255079Y-39348353D01*
X117510019Y-38852829D01*
X117830981Y-38389244D01*
X118220488Y-37952719D01*
X118642633Y-37574615D01*
X119105276Y-37251496D01*
X119599701Y-36994480D01*
X120130787Y-36801045D01*
X120703415Y-36668666D01*
X120773732Y-36660261D01*
X120928958Y-36649820D01*
X121146935Y-36640463D01*
X121420790Y-36632190D01*
X121743652Y-36625001D01*
X122108648Y-36618897D01*
X122508904Y-36613877D01*
X122937550Y-36609941D01*
X123387712Y-36607089D01*
X123852517Y-36605321D01*
X124266186Y-36604722D01*
X124325094Y-36604637D01*
X124798571Y-36605038D01*
G37*
G36*
X123096233Y-37132829D02*
G01*
X123154887Y-37214442D01*
X123207487Y-37326007D01*
X123223003Y-37483199D01*
X123168434Y-37651579D01*
X123143843Y-37706646D01*
X123127050Y-37800698D01*
X123149757Y-37913783D01*
X123175517Y-38034791D01*
X123190001Y-38253870D01*
X123175439Y-38486171D01*
X123132559Y-38698486D01*
X123105057Y-38803769D01*
X123094405Y-38908041D01*
X123113883Y-38987170D01*
X123127914Y-39031964D01*
X123145457Y-39156215D01*
X123152963Y-39314327D01*
X123150396Y-39480451D01*
X123137720Y-39628737D01*
X123114901Y-39733334D01*
X123079562Y-39805891D01*
X122953626Y-39960065D01*
X122764252Y-40110145D01*
X122518947Y-40249627D01*
X122486759Y-40265411D01*
X122351551Y-40335805D01*
X122270481Y-40389274D01*
X122231023Y-40435699D01*
X122220654Y-40484961D01*
X122230180Y-40542022D01*
X122267345Y-40554399D01*
X122487337Y-40460656D01*
X122659791Y-40394002D01*
X122782819Y-40356004D01*
X122864992Y-40343637D01*
X122872714Y-40343687D01*
X122992412Y-40379071D01*
X123081326Y-40470135D01*
X123133766Y-40602885D01*
X123144040Y-40763327D01*
X123106460Y-40937465D01*
X123087611Y-40991109D01*
X123066350Y-41070349D01*
X123073415Y-41115013D01*
X123109102Y-41149010D01*
X123128758Y-41165442D01*
X123151392Y-41207002D01*
X123150901Y-41276734D01*
X123129054Y-41396598D01*
X123064136Y-41627420D01*
X122938555Y-41920912D01*
X122940010Y-41935468D01*
X122985183Y-41948927D01*
X122991622Y-41949506D01*
X123046166Y-41990228D01*
X123098915Y-42078547D01*
X123138731Y-42191078D01*
X123154478Y-42304435D01*
X123138132Y-42403192D01*
X123096907Y-42512203D01*
X123064320Y-42582935D01*
X123062309Y-42635473D01*
X123100843Y-42685040D01*
X123106891Y-42691748D01*
X123140313Y-42783014D01*
X123140153Y-42920873D01*
X123108043Y-43088107D01*
X123045616Y-43267497D01*
X122976644Y-43428403D01*
X123065561Y-43507603D01*
X123122818Y-43578001D01*
X123149652Y-43679484D01*
X123135655Y-43816539D01*
X123081266Y-44002940D01*
X123051085Y-44093161D01*
X123024880Y-44179088D01*
X123017566Y-44215055D01*
X123019523Y-44215197D01*
X123065575Y-44199572D01*
X123159301Y-44161560D01*
X123283544Y-44108062D01*
X123323413Y-44090932D01*
X123487265Y-44035026D01*
X123494355Y-44032607D01*
X123620222Y-44022930D01*
X123711530Y-44062864D01*
X123778795Y-44153371D01*
X123810855Y-44256421D01*
X123816748Y-44427296D01*
X123784849Y-44613547D01*
X123719981Y-44790407D01*
X123626965Y-44933113D01*
X123600787Y-44957781D01*
X123501247Y-45026826D01*
X123368609Y-45100835D01*
X123226642Y-45168142D01*
X123099119Y-45217081D01*
X123009809Y-45235986D01*
X122975709Y-45242124D01*
X122941599Y-45285408D01*
X122923958Y-45385398D01*
X122921606Y-45414638D01*
X122926340Y-45505893D01*
X122957388Y-45534809D01*
X123012395Y-45556876D01*
X123084237Y-45613980D01*
X123127924Y-45668014D01*
X123148790Y-45743056D01*
X123140829Y-45857879D01*
X123131342Y-45911397D01*
X123091780Y-46061206D01*
X123039766Y-46205051D01*
X122961280Y-46387495D01*
X123037119Y-46463333D01*
X123107010Y-46578978D01*
X123147290Y-46747121D01*
X123157510Y-46950414D01*
X123138041Y-47172319D01*
X123089254Y-47396302D01*
X123011518Y-47605827D01*
X122999491Y-47630616D01*
X122883899Y-47821148D01*
X122729834Y-48019376D01*
X122554747Y-48206422D01*
X122376091Y-48363407D01*
X122211316Y-48471454D01*
X122130572Y-48518688D01*
X122052621Y-48589453D01*
X122035241Y-48650520D01*
X122083154Y-48693706D01*
X122108389Y-48693150D01*
X122193808Y-48669414D01*
X122318744Y-48622495D01*
X122466022Y-48558460D01*
X122580465Y-48507584D01*
X122779121Y-48433784D01*
X122928280Y-48403374D01*
X123034888Y-48415379D01*
X123105891Y-48468828D01*
X123132794Y-48524398D01*
X123145266Y-48656885D01*
X123120554Y-48823349D01*
X123064687Y-49008449D01*
X122983692Y-49196843D01*
X122883599Y-49373191D01*
X122770436Y-49522150D01*
X122650231Y-49628380D01*
X122638789Y-49635686D01*
X122559100Y-49666147D01*
X122480982Y-49643021D01*
X122400123Y-49599747D01*
X122481116Y-49543018D01*
X122515141Y-49516060D01*
X122607285Y-49418735D01*
X122693032Y-49300366D01*
X122756286Y-49184932D01*
X122780948Y-49096411D01*
X122779645Y-49070424D01*
X122759590Y-49024336D01*
X122706835Y-49014112D01*
X122610540Y-49039942D01*
X122459865Y-49102015D01*
X122394166Y-49130346D01*
X122260411Y-49178305D01*
X122168315Y-49188261D01*
X122101276Y-49159843D01*
X122042689Y-49092677D01*
X122024849Y-49066054D01*
X121960507Y-48962894D01*
X121882204Y-48830405D01*
X121798637Y-48684173D01*
X121718502Y-48539784D01*
X121650495Y-48412825D01*
X121603314Y-48318882D01*
X121585654Y-48273543D01*
X121604751Y-48256160D01*
X121682025Y-48211661D01*
X121808233Y-48147737D01*
X121972152Y-48070017D01*
X122162560Y-47984130D01*
X122173244Y-47979423D01*
X122381593Y-47887098D01*
X122533015Y-47817320D01*
X122638516Y-47762953D01*
X122709101Y-47716860D01*
X122755774Y-47671902D01*
X122789541Y-47620944D01*
X122821407Y-47556847D01*
X122848211Y-47490721D01*
X122895264Y-47317448D01*
X122921873Y-47131648D01*
X122924552Y-47094454D01*
X122930539Y-46975844D01*
X122924695Y-46911406D01*
X122903127Y-46884758D01*
X122861940Y-46879515D01*
X122850653Y-46880046D01*
X122758549Y-46900821D01*
X122651480Y-46942463D01*
X122519478Y-47005411D01*
X122519478Y-47296727D01*
X122519297Y-47353105D01*
X122514822Y-47484856D01*
X122500027Y-47571246D01*
X122469232Y-47634373D01*
X122416757Y-47696335D01*
X122308526Y-47785150D01*
X122167744Y-47858973D01*
X122018867Y-47906515D01*
X121879432Y-47923946D01*
X121766973Y-47907434D01*
X121699027Y-47853147D01*
X121696123Y-47846908D01*
X121677996Y-47766970D01*
X121665204Y-47640327D01*
X121660360Y-47491411D01*
X121660497Y-47464155D01*
X121668852Y-47344852D01*
X121884478Y-47344852D01*
X121885856Y-47365849D01*
X121917728Y-47414892D01*
X121996131Y-47415796D01*
X122126841Y-47369142D01*
X122228294Y-47317298D01*
X122281420Y-47265179D01*
X122295360Y-47199116D01*
X122290308Y-47135741D01*
X122275442Y-47103633D01*
X122258843Y-47106004D01*
X122183858Y-47135572D01*
X122086509Y-47188073D01*
X121989216Y-47249675D01*
X121914399Y-47306546D01*
X121884478Y-47344852D01*
X121668852Y-47344852D01*
X121675827Y-47245265D01*
X121722463Y-47067192D01*
X121808828Y-46919013D01*
X121943344Y-46789807D01*
X122134436Y-46668650D01*
X122275442Y-46600359D01*
X122390525Y-46544622D01*
X122470379Y-46508176D01*
X122603602Y-46442125D01*
X122701889Y-46386433D01*
X122748245Y-46350330D01*
X122764549Y-46315939D01*
X122779250Y-46234626D01*
X122770587Y-46163154D01*
X122739763Y-46132457D01*
X122738116Y-46132566D01*
X122684779Y-46149315D01*
X122579113Y-46190494D01*
X122435632Y-46250239D01*
X122268849Y-46322689D01*
X122249973Y-46331004D01*
X122087249Y-46399095D01*
X121950783Y-46450067D01*
X121854398Y-46479116D01*
X121811917Y-46481439D01*
X121793325Y-46455126D01*
X121744359Y-46376370D01*
X121682824Y-46271190D01*
X121580934Y-46092423D01*
X121854103Y-45966925D01*
X122018852Y-45891517D01*
X122209894Y-45804543D01*
X122376013Y-45729351D01*
X122511437Y-45660810D01*
X122634046Y-45569450D01*
X122692048Y-45473787D01*
X122691064Y-45367362D01*
X122660899Y-45293776D01*
X122600448Y-45258263D01*
X122515698Y-45292645D01*
X122405837Y-45397006D01*
X122329995Y-45471980D01*
X122189673Y-45583615D01*
X122045877Y-45674386D01*
X122041169Y-45676877D01*
X121929324Y-45733085D01*
X121779023Y-45804775D01*
X121603530Y-45886045D01*
X121416107Y-45970997D01*
X121230014Y-46053733D01*
X121058515Y-46128351D01*
X120914870Y-46188954D01*
X120812342Y-46229642D01*
X120764192Y-46244515D01*
X120717864Y-46227178D01*
X120649909Y-46155533D01*
X120591364Y-46048543D01*
X120556678Y-45928231D01*
X120556749Y-45839391D01*
X120838595Y-45839391D01*
X120842305Y-45877194D01*
X120861104Y-45908339D01*
X120874163Y-45905184D01*
X120945599Y-45878086D01*
X121064097Y-45828456D01*
X121215501Y-45762624D01*
X121385652Y-45686923D01*
X121560394Y-45607687D01*
X121725567Y-45531247D01*
X121867015Y-45463936D01*
X121970580Y-45412087D01*
X122061513Y-45358779D01*
X122157805Y-45289448D01*
X122227145Y-45225832D01*
X122257457Y-45179315D01*
X122236665Y-45161280D01*
X122233900Y-45161853D01*
X122181911Y-45181734D01*
X122074439Y-45226639D01*
X121922137Y-45292003D01*
X121735655Y-45373265D01*
X121525644Y-45465862D01*
X121340293Y-45548827D01*
X121140532Y-45641430D01*
X120997663Y-45712883D01*
X120904504Y-45767092D01*
X120853876Y-45807960D01*
X120838595Y-45839391D01*
X120556749Y-45839391D01*
X120556850Y-45713627D01*
X120624691Y-45497267D01*
X120757123Y-45308160D01*
X120787705Y-45278611D01*
X120856027Y-45225088D01*
X120949734Y-45166347D01*
X121077594Y-45097811D01*
X121248371Y-45014900D01*
X121398326Y-44946236D01*
X122767879Y-44946236D01*
X122818975Y-44968991D01*
X122927527Y-44957504D01*
X123083497Y-44910835D01*
X123278424Y-44830896D01*
X123399287Y-44770317D01*
X123494109Y-44707125D01*
X123528007Y-44659358D01*
X123522977Y-44631348D01*
X123487265Y-44600986D01*
X123453847Y-44607046D01*
X123364246Y-44637925D01*
X123244227Y-44687919D01*
X123110362Y-44749073D01*
X122979223Y-44813435D01*
X122867382Y-44873051D01*
X122791410Y-44919969D01*
X122767879Y-44946236D01*
X121398326Y-44946236D01*
X121470832Y-44913036D01*
X121753742Y-44787642D01*
X121817984Y-44759340D01*
X122093254Y-44635191D01*
X122236665Y-44567476D01*
X122325334Y-44525609D01*
X122507671Y-44433866D01*
X122633712Y-44363232D01*
X122696904Y-44316975D01*
X122700636Y-44312724D01*
X122752269Y-44228859D01*
X122778425Y-44139943D01*
X122775468Y-44069410D01*
X122739763Y-44040692D01*
X122738116Y-44040801D01*
X122684779Y-44057550D01*
X122579113Y-44098729D01*
X122435632Y-44158475D01*
X122268849Y-44230925D01*
X122249973Y-44239239D01*
X122087249Y-44307331D01*
X121950783Y-44358302D01*
X121854398Y-44387351D01*
X121811917Y-44389675D01*
X121794009Y-44364422D01*
X121745449Y-44286445D01*
X121684314Y-44181968D01*
X121583915Y-44005745D01*
X121724858Y-43935042D01*
X121797056Y-43900232D01*
X121929995Y-43838473D01*
X122094132Y-43763771D01*
X122269151Y-43685443D01*
X122419652Y-43615014D01*
X122564298Y-43539510D01*
X122672007Y-43474552D01*
X122726725Y-43429131D01*
X122756940Y-43370107D01*
X122778221Y-43283626D01*
X122776643Y-43211652D01*
X122749666Y-43181574D01*
X122736521Y-43185632D01*
X122663808Y-43214815D01*
X122535749Y-43269061D01*
X122360762Y-43344716D01*
X122147266Y-43438131D01*
X121903677Y-43545652D01*
X121638416Y-43663628D01*
X120558448Y-44145683D01*
X120547275Y-43900790D01*
X120543949Y-43778221D01*
X120545690Y-43670459D01*
X120552578Y-43612962D01*
X120572787Y-43595383D01*
X120651841Y-43548954D01*
X120779386Y-43482827D01*
X120943693Y-43403012D01*
X121133029Y-43315522D01*
X121231764Y-43270839D01*
X121413342Y-43187093D01*
X121539627Y-43124904D01*
X121619821Y-43078531D01*
X121663128Y-43042233D01*
X121678750Y-43010270D01*
X121675892Y-42976901D01*
X121670669Y-42928914D01*
X121918895Y-42928914D01*
X121934098Y-42957457D01*
X121965332Y-42948345D01*
X122053070Y-42912486D01*
X122179773Y-42856201D01*
X122330134Y-42786772D01*
X122488849Y-42711482D01*
X122640612Y-42637613D01*
X122770117Y-42572447D01*
X122862059Y-42523266D01*
X122901133Y-42497352D01*
X122915803Y-42471827D01*
X122923788Y-42415211D01*
X122869443Y-42397162D01*
X122827415Y-42407398D01*
X122728775Y-42442678D01*
X122593684Y-42496168D01*
X122439199Y-42560583D01*
X122282381Y-42628641D01*
X122140289Y-42693056D01*
X122029983Y-42746546D01*
X121968522Y-42781826D01*
X121950491Y-42803870D01*
X121926609Y-42866241D01*
X121918895Y-42928914D01*
X121670669Y-42928914D01*
X121665137Y-42878097D01*
X121701630Y-42707122D01*
X121799024Y-42532363D01*
X121950179Y-42362886D01*
X122147957Y-42207759D01*
X122385217Y-42076048D01*
X122471343Y-42035189D01*
X122622868Y-41950855D01*
X122717834Y-41871541D01*
X122766956Y-41786679D01*
X122780948Y-41685699D01*
X122773474Y-41643918D01*
X122739763Y-41612751D01*
X122738208Y-41612849D01*
X122685106Y-41629483D01*
X122579636Y-41670566D01*
X122436328Y-41730228D01*
X122269712Y-41802601D01*
X122250425Y-41811122D01*
X122089684Y-41880722D01*
X121957223Y-41935644D01*
X121866309Y-41970532D01*
X121830211Y-41980028D01*
X121811836Y-41950508D01*
X121766156Y-41872158D01*
X121704630Y-41764263D01*
X121589684Y-41560923D01*
X122213331Y-41284440D01*
X122435402Y-41185459D01*
X122621586Y-41100620D01*
X122755111Y-41036543D01*
X122844363Y-40988701D01*
X122869443Y-40971720D01*
X122897731Y-40952566D01*
X122923601Y-40923608D01*
X122930360Y-40897299D01*
X122925372Y-40872857D01*
X122889341Y-40850731D01*
X122813064Y-40857197D01*
X122690125Y-40893903D01*
X122514112Y-40962494D01*
X122278608Y-41064618D01*
X121735066Y-41307414D01*
X121735066Y-41047294D01*
X121735066Y-40787174D01*
X121865801Y-40732549D01*
X121902939Y-40715697D01*
X121975924Y-40660425D01*
X121996536Y-40586803D01*
X121994546Y-40545526D01*
X121975718Y-40513958D01*
X121920965Y-40507026D01*
X121811261Y-40517625D01*
X121735302Y-40525648D01*
X121656852Y-40524367D01*
X121613164Y-40498159D01*
X121580063Y-40438778D01*
X121561981Y-40391118D01*
X121554179Y-40301472D01*
X121572428Y-40219272D01*
X121744777Y-40219272D01*
X121766984Y-40277551D01*
X121797920Y-40294283D01*
X121864201Y-40289216D01*
X121919625Y-40253861D01*
X121932274Y-40202677D01*
X121930539Y-40198464D01*
X121880510Y-40162223D01*
X121807412Y-40161145D01*
X121751731Y-40196594D01*
X121744777Y-40219272D01*
X121572428Y-40219272D01*
X121580787Y-40181619D01*
X121600917Y-40112873D01*
X121630597Y-40000031D01*
X121654207Y-39885227D01*
X121659935Y-39850873D01*
X121931663Y-39850873D01*
X121986328Y-39857162D01*
X122037618Y-39863827D01*
X122088410Y-39892073D01*
X122088852Y-39892720D01*
X122125178Y-39895922D01*
X122211297Y-39870566D01*
X122351263Y-39815049D01*
X122549134Y-39727766D01*
X122808963Y-39607114D01*
X122816062Y-39603706D01*
X122903890Y-39540513D01*
X122930360Y-39460700D01*
X122925076Y-39403485D01*
X122907851Y-39371574D01*
X122894607Y-39374247D01*
X122821830Y-39400756D01*
X122704489Y-39449733D01*
X122558583Y-39513855D01*
X122400110Y-39585797D01*
X122245069Y-39658235D01*
X122109457Y-39723845D01*
X122009274Y-39775301D01*
X121960518Y-39805281D01*
X121943759Y-39821867D01*
X121931663Y-39850873D01*
X121659935Y-39850873D01*
X121679686Y-39732412D01*
X121681118Y-39723964D01*
X121746942Y-39558102D01*
X121807412Y-39484100D01*
X121880017Y-39395247D01*
X122073362Y-39242229D01*
X122319995Y-39105879D01*
X122430325Y-39052875D01*
X122551610Y-38980981D01*
X122625262Y-38904111D01*
X122660227Y-38805070D01*
X122665448Y-38666660D01*
X122649870Y-38471687D01*
X122623785Y-38211943D01*
X122481554Y-38340441D01*
X122449840Y-38369064D01*
X122394210Y-38417322D01*
X122340105Y-38457679D01*
X122277213Y-38494732D01*
X122195222Y-38533076D01*
X122083822Y-38577307D01*
X121932702Y-38632020D01*
X121731550Y-38701812D01*
X121470055Y-38791278D01*
X121386857Y-38819922D01*
X121018194Y-38953261D01*
X120721062Y-39072613D01*
X120495887Y-39177783D01*
X120343093Y-39268577D01*
X120263105Y-39344798D01*
X120244086Y-39380741D01*
X120242719Y-39425552D01*
X120287761Y-39446987D01*
X120385466Y-39445420D01*
X120542090Y-39421227D01*
X120763889Y-39374782D01*
X120830911Y-39359903D01*
X121027745Y-39319579D01*
X121165042Y-39300831D01*
X121252694Y-39305522D01*
X121300598Y-39335513D01*
X121318646Y-39392668D01*
X121316734Y-39478849D01*
X121299335Y-39563605D01*
X121247675Y-39644155D01*
X121145849Y-39732656D01*
X121087744Y-39772411D01*
X120959647Y-39839264D01*
X120847025Y-39874866D01*
X120725497Y-39896928D01*
X120553088Y-39933487D01*
X120352018Y-39979649D01*
X120144098Y-40030584D01*
X120086364Y-40025283D01*
X120028754Y-39957524D01*
X119992217Y-39825260D01*
X119978648Y-39633045D01*
X119978086Y-39560218D01*
X119976523Y-39408633D01*
X119974785Y-39285397D01*
X119983986Y-39199428D01*
X120051551Y-39034198D01*
X120177414Y-38867764D01*
X120353007Y-38713090D01*
X120420792Y-38671446D01*
X120569740Y-38597613D01*
X120777757Y-38506686D01*
X121037808Y-38401699D01*
X121342860Y-38285692D01*
X121449345Y-38245930D01*
X121698445Y-38150675D01*
X121933674Y-38057822D01*
X122140926Y-37973090D01*
X122306094Y-37902201D01*
X122415072Y-37850874D01*
X122665519Y-37720562D01*
X122676542Y-37491863D01*
X122677883Y-37464613D01*
X122687266Y-37347857D01*
X122708669Y-37277375D01*
X122754452Y-37229038D01*
X122836978Y-37178718D01*
X122838981Y-37177587D01*
X122907851Y-37142509D01*
X122958561Y-37116680D01*
X123037551Y-37101001D01*
X123096233Y-37132829D01*
G37*
D15*
%TO.C,JP4*%
X151000000Y-76700000D02*
X151000000Y-75300000D01*
X151700000Y-74600000D02*
X152300000Y-74600000D01*
X152300000Y-77400000D02*
X151700000Y-77400000D01*
X153000000Y-75300000D02*
X153000000Y-76700000D01*
X151000000Y-75300000D02*
G75*
G02*
X151700000Y-74600000I699999J1D01*
G01*
X151700000Y-77400000D02*
G75*
G02*
X151000000Y-76700000I0J700000D01*
G01*
X152300000Y-74600000D02*
G75*
G02*
X153000000Y-75300000I1J-699999D01*
G01*
X153000000Y-76700000D02*
G75*
G02*
X152300000Y-77400000I-700000J0D01*
G01*
%TO.C,JP1*%
X128000000Y-113900000D02*
X128000000Y-112500000D01*
X128700000Y-111800000D02*
X129300000Y-111800000D01*
X129300000Y-114600000D02*
X128700000Y-114600000D01*
X130000000Y-112500000D02*
X130000000Y-113900000D01*
X128000000Y-112500000D02*
G75*
G02*
X128700000Y-111800000I700000J0D01*
G01*
X128700000Y-114600000D02*
G75*
G02*
X128000000Y-113900000I-1J699999D01*
G01*
X129300000Y-111800000D02*
G75*
G02*
X130000000Y-112500000I0J-700000D01*
G01*
X130000000Y-113900000D02*
G75*
G02*
X129300000Y-114600000I-699999J-1D01*
G01*
%TO.C,JP6*%
X133500000Y-76700000D02*
X133500000Y-75300000D01*
X134200000Y-74600000D02*
X134800000Y-74600000D01*
X134800000Y-77400000D02*
X134200000Y-77400000D01*
X135500000Y-75300000D02*
X135500000Y-76700000D01*
X133500000Y-75300000D02*
G75*
G02*
X134200000Y-74600000I699999J1D01*
G01*
X134200000Y-77400000D02*
G75*
G02*
X133500000Y-76700000I0J700000D01*
G01*
X134800000Y-74600000D02*
G75*
G02*
X135500000Y-75300000I1J-699999D01*
G01*
X135500000Y-76700000D02*
G75*
G02*
X134800000Y-77400000I-700000J0D01*
G01*
%TO.C,JP2*%
X132000000Y-113900000D02*
X132000000Y-112500000D01*
X132700000Y-111800000D02*
X133300000Y-111800000D01*
X133300000Y-114600000D02*
X132700000Y-114600000D01*
X134000000Y-112500000D02*
X134000000Y-113900000D01*
X132000000Y-112500000D02*
G75*
G02*
X132700000Y-111800000I700000J0D01*
G01*
X132700000Y-114600000D02*
G75*
G02*
X132000000Y-113900000I-1J699999D01*
G01*
X133300000Y-111800000D02*
G75*
G02*
X134000000Y-112500000I0J-700000D01*
G01*
X134000000Y-113900000D02*
G75*
G02*
X133300000Y-114600000I-699999J-1D01*
G01*
%TD*%
M02*
