M48
; DRILL file {KiCad 8.0.0} date 2024-03-24T17:19:07-0700
; FORMAT={-:-/ absolute / inch / decimal}
; #@! TF.CreationDate,2024-03-24T17:19:07-07:00
; #@! TF.GenerationSoftware,Kicad,Pcbnew,8.0.0
; #@! TF.FileFunction,Plated,1,2,PTH
FMAT,2
INCH
; #@! TA.AperFunction,Plated,PTH,ViaDrill
T1C0.0118
; #@! TA.AperFunction,Plated,PTH,ComponentDrill
T2C0.0315
; #@! TA.AperFunction,Plated,PTH,ComponentDrill
T3C0.0350
; #@! TA.AperFunction,Plated,PTH,ComponentDrill
T4C0.0394
; #@! TA.AperFunction,Plated,PTH,ComponentDrill
T5C0.0410
; #@! TA.AperFunction,Plated,PTH,ComponentDrill
T6C0.0433
; #@! TA.AperFunction,Plated,PTH,ComponentDrill
T7C0.0598
; #@! TA.AperFunction,Plated,PTH,ComponentDrill
T8C0.0630
; #@! TA.AperFunction,Plated,PTH,ComponentDrill
T9C0.2087
%
G90
G05
T1
X4.7953Y-3.7402
X4.8031Y-3.1339
X4.8031Y-3.2362
X4.8031Y-3.3228
X4.8307Y-3.0315
X4.8819Y-3.1339
X4.8819Y-3.2362
X4.8819Y-3.3228
X4.9055Y-4.3386
X4.9134Y-2.9449
X4.9173Y-2.4016
X4.9173Y-3.8583
X4.937Y-3.0354
X4.9449Y-5.185
X5.0039Y-2.2047
X5.0118Y-3.6575
X5.0177Y-4.7498
X5.0315Y-4.2874
X5.0512Y-5.2441
X5.0669Y-4.9843
X5.122Y-2.8307
X5.1614Y-4.4331
X5.1614Y-4.5236
X5.2008Y-4.737
X5.2052Y-4.954
X5.2126Y-2.8504
X5.2598Y-4.626
X5.2795Y-2.7874
X5.2795Y-2.8937
X5.2795Y-4.3819
X5.2913Y-4.4823
X5.3031Y-4.9213
X5.314Y-4.7094
X5.315Y-4.5945
X5.3386Y-3.3189
X5.3504Y-2.8661
X5.3701Y-3.4055
X5.3701Y-3.8622
X5.374Y-2.4094
X5.374Y-3.2205
X5.374Y-3.6969
X5.4173Y-2.8307
X5.4331Y-3.1181
X5.4331Y-4.7047
X5.4409Y-4.4291
X5.4646Y-2.3386
X5.4646Y-3.7677
X5.4646Y-3.9567
X5.4685Y-3.4055
X5.4764Y-4.9685
X5.4803Y-3.3189
X5.4843Y-3.2244
X5.5039Y-4.2795
X5.5945Y-4.5748
X5.5984Y-4.122
X5.6024Y-4.0
X5.6181Y-3.0394
X5.6181Y-5.1142
X5.626Y-2.689
X5.626Y-4.8031
X5.6457Y-1.7205
X5.6496Y-2.4882
X5.6614Y-2.9724
X5.6693Y-3.1949
X5.6772Y-3.1299
X5.6969Y-4.5866
X5.7087Y-1.9764
X5.7126Y-4.8071
X5.7362Y-1.6693
X5.7598Y-2.9173
X5.7638Y-3.0276
X5.7638Y-3.1732
X5.7677Y-2.6063
X5.7992Y-2.3583
X5.8031Y-4.5906
X5.8071Y-2.7677
X5.8268Y-3.185
X5.8425Y-1.8307
X5.8425Y-4.6693
X5.8819Y-1.6535
X5.8858Y-2.7283
X5.8898Y-2.3622
X5.8898Y-2.9213
X5.8937Y-3.0591
X5.9094Y-4.811
X5.9173Y-4.6339
X5.9567Y-2.9173
X5.9567Y-3.0827
X5.9764Y-2.7323
X5.9803Y-4.5827
X5.9843Y-2.4016
X5.9961Y-1.752
X6.0197Y-3.0748
X6.0354Y-2.8189
X6.0407Y-4.2199
X6.0512Y-1.8346
X6.0551Y-4.0039
X6.0748Y-2.1772
X6.0787Y-2.4055
X6.0866Y-2.9134
X6.0866Y-3.0197
X6.0906Y-4.3701
X6.0945Y-1.8898
X6.1018Y-4.1254
X6.1102Y-4.5827
X6.1496Y-3.9843
X6.1732Y-5.0984
X6.2165Y-4.5433
X6.2323Y-2.5354
X6.2362Y-1.9921
X6.2795Y-1.9528
X6.3071Y-2.3898
X6.3189Y-3.5
X6.3228Y-4.8189
X6.3504Y-2.0984
X6.3661Y-1.9685
X6.3976Y-3.6929
X6.3996Y-2.4016
X6.4055Y-3.5118
X6.4409Y-4.7953
X6.4488Y-2.5433
X6.4606Y-1.8622
X6.5118Y-5.1614
X6.5394Y-4.7953
X6.5984Y-3.2008
X6.6614Y-2.0906
X6.7087Y-2.6102
X6.7087Y-3.7126
X6.7126Y-1.8976
X6.7126Y-3.1417
X6.7165Y-4.1535
X6.7205Y-2.3937
X6.7244Y-3.4921
X6.7283Y-3.3386
X6.752Y-3.0945
X6.7677Y-2.7559
X6.7677Y-3.8583
X6.7697Y-2.5157
X6.7697Y-3.6181
X6.7835Y-5.0315
X6.7874Y-2.0354
X6.815Y-2.374
X6.8268Y-3.122
X6.8583Y-3.2874
X6.878Y-2.9685
X6.8937Y-3.4921
X6.899Y-3.1352
X6.9134Y-1.9331
X6.9173Y-3.2047
X6.9291Y-3.0276
X7.1008Y-4.1512
X7.1024Y-2.1457
X7.1028Y-3.6016
X7.1339Y-4.874
X7.1929Y-2.6772
X7.1969Y-4.2441
X7.2209Y-3.8539
X7.2283Y-2.3543
X7.2835Y-4.5748
T2
X5.9028Y-1.9787
X5.9028Y-2.0575
X5.9028Y-1.9787
X5.9028Y-2.0575
X5.9815Y-1.9787
X5.9815Y-2.0575
X5.9816Y-1.9787
X5.9816Y-2.0575
X6.0602Y-1.9787
X6.0602Y-2.0575
X6.0603Y-1.9787
X6.0603Y-2.0575
T3
X6.4114Y-2.0429
X6.4614Y-1.9429
X6.5114Y-2.0429
X6.5614Y-1.9429
X6.6114Y-2.0429
X6.6614Y-1.9429
X6.7114Y-2.0429
X6.7614Y-1.9429
T4
X4.6102Y-2.2069
X4.6102Y-2.3069
X4.6102Y-2.4069
X4.6102Y-2.5069
X4.6102Y-2.9352
X4.6102Y-3.0352
X4.6102Y-3.1352
X4.6102Y-3.2352
X4.6102Y-3.6636
X4.6102Y-3.7636
X4.6102Y-3.8636
X4.6102Y-3.9636
X4.6102Y-4.3919
X4.6102Y-4.4919
X4.6102Y-4.5919
X4.6102Y-4.6919
X4.7102Y-2.2569
X4.7102Y-2.3569
X4.7102Y-2.4569
X4.7102Y-2.5569
X4.7102Y-2.9852
X4.7102Y-3.0852
X4.7102Y-3.1852
X4.7102Y-3.2852
X4.7102Y-3.7136
X4.7102Y-3.8136
X4.7102Y-3.9136
X4.7102Y-4.0136
X4.7102Y-4.4419
X4.7102Y-4.5419
X4.7102Y-4.6419
X4.7102Y-4.7419
X5.5563Y-1.4681
X5.5563Y-1.5681
X5.5563Y-1.6681
X5.5563Y-1.7681
X5.5563Y-1.8681
X5.5563Y-1.9681
X5.5563Y-2.0681
X5.5563Y-2.1681
X5.5563Y-2.2681
X5.5563Y-2.3681
X5.5563Y-2.4681
X5.5563Y-2.5681
X5.5563Y-2.6681
X5.5563Y-2.7681
X5.5563Y-2.8681
X5.5563Y-2.9681
X5.5563Y-3.0681
X5.5563Y-3.1681
X5.5563Y-3.2681
X5.5563Y-3.3681
X5.5563Y-3.4681
X5.5563Y-3.5681
X5.5563Y-3.6681
X5.5563Y-3.7681
X5.6124Y-4.9764
X5.6624Y-4.8764
X5.7124Y-4.9764
X5.7624Y-4.8764
X5.8124Y-4.9764
X5.8624Y-4.8764
X5.9124Y-4.9764
X5.9624Y-4.8764
X6.0563Y-1.5681
X6.1563Y-1.4681
X6.1563Y-1.5681
X6.1563Y-1.6681
X6.1563Y-1.7681
X6.1563Y-1.8681
X6.1563Y-1.9681
X6.1563Y-2.0681
X6.1563Y-2.1681
X6.1563Y-2.2681
X6.1563Y-2.3681
X6.1563Y-2.4681
X6.1563Y-2.5681
X6.1563Y-2.6681
X6.1563Y-2.7681
X6.1563Y-2.8681
X6.1563Y-2.9681
X6.1563Y-3.0681
X6.1563Y-3.1681
X6.1563Y-3.2681
X6.1563Y-3.3681
X6.1563Y-3.4681
X6.1563Y-3.5681
X6.1563Y-3.6681
X6.1563Y-3.7681
X6.3407Y-4.9764
X6.3907Y-4.8764
X6.4407Y-4.9764
X6.4907Y-4.8764
X6.5407Y-4.9764
X6.5907Y-4.8764
X6.6407Y-4.9764
X6.6907Y-4.8764
X7.0024Y-2.2069
X7.0024Y-2.3069
X7.0024Y-2.4069
X7.0024Y-2.5069
X7.0024Y-2.9352
X7.0024Y-3.0352
X7.0024Y-3.1352
X7.0024Y-3.2352
X7.0024Y-3.6636
X7.0024Y-3.7636
X7.0024Y-3.8636
X7.0024Y-3.9636
X7.0024Y-4.3919
X7.0024Y-4.4919
X7.0024Y-4.5919
X7.0024Y-4.6919
X7.1024Y-2.2569
X7.1024Y-2.3569
X7.1024Y-2.4569
X7.1024Y-2.5569
X7.1024Y-2.9852
X7.1024Y-3.0852
X7.1024Y-3.1852
X7.1024Y-3.2852
X7.1024Y-3.7136
X7.1024Y-3.8136
X7.1024Y-3.9136
X7.1024Y-4.0136
X7.1024Y-4.4419
X7.1024Y-4.5419
X7.1024Y-4.6419
X7.1024Y-4.7419
T5
X6.3374Y-1.5598
X6.4374Y-1.4929
X6.7355Y-1.5598
X6.8355Y-1.4921
T6
X5.5563Y-1.4681
X5.5563Y-1.5681
X5.5563Y-1.6681
X5.5563Y-1.7681
X5.5563Y-1.8681
X5.5563Y-1.9681
X5.5563Y-2.0681
X5.5563Y-2.1681
X5.5563Y-2.2681
X5.5563Y-2.3681
X5.5563Y-2.4681
X5.5563Y-2.5681
X5.5563Y-2.6681
X5.5563Y-2.7681
X5.5563Y-2.8681
X5.5563Y-2.9681
X5.5563Y-3.0681
X5.5563Y-3.1681
X5.5563Y-3.2681
X5.5563Y-3.3681
X5.5563Y-3.4681
X5.5563Y-3.5681
X5.5563Y-3.6681
X5.5563Y-3.7681
X6.0563Y-1.5681
X6.1563Y-1.4681
X6.1563Y-1.5681
X6.1563Y-1.6681
X6.1563Y-1.7681
X6.1563Y-1.8681
X6.1563Y-1.9681
X6.1563Y-2.0681
X6.1563Y-2.1681
X6.1563Y-2.2681
X6.1563Y-2.3681
X6.1563Y-2.4681
X6.1563Y-2.5681
X6.1563Y-2.6681
X6.1563Y-2.7681
X6.1563Y-2.8681
X6.1563Y-2.9681
X6.1563Y-3.0681
X6.1563Y-3.1681
X6.1563Y-3.2681
X6.1563Y-3.3681
X6.1563Y-3.4681
X6.1563Y-3.5681
X6.1563Y-3.6681
X6.1563Y-3.7681
T7
X4.8327Y-5.374
X5.0327Y-5.374
X5.2327Y-5.374
T8
X6.2764Y-1.8122
X6.8965Y-1.8122
T9
X4.3602Y-1.7224
X4.3602Y-5.2264
X7.3524Y-1.7224
X7.3524Y-5.2264
M30
