M48
; DRILL file {KiCad 8.0.0} date 2024-03-23T18:21:14-0700
; FORMAT={-:-/ absolute / inch / decimal}
; #@! TF.CreationDate,2024-03-23T18:21:14-07:00
; #@! TF.GenerationSoftware,Kicad,Pcbnew,8.0.0
; #@! TF.FileFunction,NonPlated,1,2,NPTH
FMAT,2
INCH
; #@! TA.AperFunction,NonPlated,NPTH,ComponentDrill
T1C0.0454
; #@! TA.AperFunction,NonPlated,NPTH,ComponentDrill
T2C0.1280
; #@! TA.AperFunction,NonPlated,NPTH,ComponentDrill
T3C0.1280
%
G90
G05
T1
X4.2618Y-4.9508
X7.4508Y-1.998
X7.4508Y-4.9508
T2
X4.3602Y-2.1569
X4.3602Y-2.6069
X4.3602Y-2.8852
X4.3602Y-3.3352
X4.3602Y-3.6136
X4.3602Y-4.0636
X4.3602Y-4.3419
X4.3602Y-4.7919
X5.5624Y-5.2264
X6.0124Y-5.2264
X6.2907Y-5.2264
X6.7407Y-5.2264
X7.3524Y-2.1569
X7.3524Y-2.6069
X7.3524Y-2.8852
X7.3524Y-3.3352
X7.3524Y-3.6136
X7.3524Y-4.0636
X7.3524Y-4.3419
X7.3524Y-4.7919
T3
X6.3614Y-1.6921
X6.8114Y-1.6921
M30
